<svg width="96" height="96" viewBox="0 0 96 96" fill="none" xmlns="http://www.w3.org/2000/svg">
<g clip-path="url(#clip0_3_46)">
<path d="M32.9476 52.2364C32.8736 52.2364 32.8123 52.2545 32.7655 52.2909C32.7179 52.3287 32.6945 52.3756 32.6945 52.4299V54.0237C32.6945 54.0797 32.7179 54.1265 32.7655 54.1629C32.8123 54.2007 32.8736 54.2188 32.9476 54.2188C33.0226 54.2188 33.0837 54.2007 33.1307 54.1629C33.1783 54.1265 33.2018 54.0797 33.2018 54.0237V52.4299C33.2018 52.3756 33.1783 52.3287 33.1307 52.2909C33.0837 52.2545 33.0226 52.2364 32.9476 52.2364Z" fill="white"/>
<path d="M34.8371 52.2364C34.763 52.2364 34.7018 52.2545 34.6549 52.2909C34.6072 52.3287 34.5838 52.3756 34.5838 52.4299V54.0237C34.5838 54.0797 34.6072 54.1265 34.6549 54.1629C34.7017 54.2007 34.763 54.2188 34.8371 54.2188C34.9119 54.2188 34.9733 54.2007 35.02 54.1629C35.0677 54.1265 35.091 54.0797 35.091 54.0237V52.4299C35.091 52.3756 35.0677 52.3287 35.02 52.2909C34.9733 52.2545 34.9119 52.2364 34.8371 52.2364Z" fill="white"/>
<path d="M31.6682 45.273C31.497 44.8528 31.3628 44.4283 31.2724 43.999H29.5411V45.273H31.6682Z" fill="white"/>
<path d="M31.1683 41.9183H29.5411V43.2248H31.1592C31.119 42.7852 31.1222 42.3496 31.1683 41.9183Z" fill="white"/>
<path d="M29.1689 54.219C29.2439 54.219 29.3051 54.2009 29.352 54.1631C29.3995 54.1267 29.4231 54.0799 29.4231 54.0239V52.4301C29.4231 52.3758 29.3995 52.3289 29.352 52.2911C29.3051 52.2547 29.2439 52.2366 29.1689 52.2366C29.0949 52.2366 29.0336 52.2547 28.9867 52.2911C28.9392 52.3289 28.9156 52.3758 28.9156 52.4301V54.0239C28.9156 54.0799 28.9392 54.1267 28.9867 54.1631C29.0336 54.2009 29.0949 54.219 29.1689 54.219Z" fill="white"/>
<path d="M48.0612 52.2364C47.987 52.2364 47.9258 52.2545 47.8789 52.2909C47.8314 52.3287 47.8079 52.3756 47.8079 52.4299V54.0237C47.8079 54.0797 47.8314 54.1265 47.8789 54.1629C47.9258 54.2007 47.987 54.2188 48.0612 54.2188C48.136 54.2188 48.1973 54.2007 48.2442 54.1629C48.2917 54.1265 48.3153 54.0797 48.3153 54.0237V52.4299C48.3153 52.3756 48.2917 52.3287 48.2442 52.2909C48.1973 52.2545 48.136 52.2364 48.0612 52.2364Z" fill="white"/>
<path d="M49.9505 52.2364C49.8765 52.2364 49.8152 52.2545 49.7683 52.2909C49.7207 52.3287 49.6972 52.3756 49.6972 52.4299V54.0237C49.6972 54.0797 49.7207 54.1265 49.7683 54.1629C49.8152 54.2007 49.8765 54.2188 49.9505 54.2188C50.0253 54.2188 50.0866 54.2007 50.1335 54.1629C50.1811 54.1265 50.2046 54.0797 50.2046 54.0237V52.4299C50.2046 52.3756 50.1811 52.3287 50.1335 52.2909C50.0866 52.2545 50.0253 52.2364 49.9505 52.2364Z" fill="white"/>
<path d="M31.4643 40.5H30.5081C30.0892 40.5 29.7404 40.771 29.6064 41.1442H31.291C31.3462 40.9097 31.4002 40.6848 31.4643 40.5Z" fill="white"/>
<path d="M31.0583 52.2364C30.9843 52.2364 30.923 52.2545 30.8762 52.2909C30.8286 52.3287 30.8051 52.3756 30.8051 52.4299V54.0237C30.8051 54.0797 30.8286 54.1265 30.8762 54.1629C30.923 54.2007 30.9843 54.2188 31.0583 54.2188C31.1332 54.2188 31.1944 54.2007 31.2414 54.1629C31.2891 54.1265 31.3124 54.0797 31.3124 54.0237V52.4299C31.3124 52.3756 31.2891 52.3287 31.2414 52.2909C31.1944 52.2545 31.1332 52.2364 31.0583 52.2364Z" fill="white"/>
<path d="M36.7733 41.1442C36.6395 40.771 36.2911 40.5 35.8722 40.5H35.0856C35.1496 40.6859 35.2036 40.9098 35.2589 41.1442H36.7733Z" fill="white"/>
<path d="M40.5044 54.219C40.5794 54.219 40.6405 54.2009 40.6874 54.1631C40.735 54.1267 40.7585 54.0799 40.7585 54.0239V52.4301C40.7585 52.3758 40.735 52.3289 40.6874 52.2911C40.6405 52.2547 40.5794 52.2366 40.5044 52.2366C40.4304 52.2366 40.3691 52.2547 40.3222 52.2911C40.2746 52.3289 40.2511 52.3758 40.2511 52.4301V54.0239C40.2511 54.0799 40.2746 54.1267 40.3222 54.1631C40.3691 54.2009 40.4304 54.219 40.5044 54.219Z" fill="white"/>
<path d="M42.3938 54.219C42.4687 54.219 42.5299 54.2009 42.5768 54.1631C42.6245 54.1267 42.6479 54.0799 42.6479 54.0239V52.4301C42.6479 52.3758 42.6245 52.3289 42.5768 52.2911C42.5299 52.2547 42.4687 52.2366 42.3938 52.2366C42.3198 52.2366 42.2585 52.2547 42.2117 52.2911C42.164 52.3289 42.1406 52.3758 42.1406 52.4301V54.0239C42.1406 54.0799 42.164 54.1267 42.2117 54.1631C42.2585 54.2009 42.3198 54.219 42.3938 54.219Z" fill="white"/>
<path d="M31.9581 43.5514C32.0509 44.1309 32.2434 44.7078 32.5033 45.2729H34.0463C34.3062 44.7078 34.4988 44.1308 34.5915 43.5506C34.6958 42.8921 34.6912 42.2359 34.5771 41.5993C34.493 41.1325 34.369 40.7785 34.256 40.5H32.2948C32.1812 40.7758 32.0566 41.1281 31.9725 41.5993C31.8584 42.2359 31.8538 42.8921 31.9581 43.5514Z" fill="white"/>
<path d="M30.5081 46.7253H35.8723C36.3031 46.7253 36.656 46.4371 36.7803 46.0471H29.5995C29.724 46.4371 30.0773 46.7253 30.5081 46.7253Z" fill="white"/>
<path d="M44.2831 54.219C44.358 54.219 44.4192 54.2009 44.4661 54.1631C44.5138 54.1267 44.5372 54.0799 44.5372 54.0239V52.4301C44.5372 52.3758 44.5138 52.3289 44.4661 52.2911C44.4192 52.2547 44.358 52.2366 44.2831 52.2366C44.2091 52.2366 44.1477 52.2547 44.101 52.2911C44.0533 52.3289 44.0299 52.3758 44.0299 52.4301V54.0239C44.0299 54.0799 44.0533 54.1267 44.101 54.1631C44.1477 54.2009 44.2091 54.219 44.2831 54.219Z" fill="white"/>
<path d="M51.8399 52.2364C51.7659 52.2364 51.7045 52.2545 51.6576 52.2909C51.6101 52.3287 51.5865 52.3756 51.5865 52.4299V54.0237C51.5865 54.0797 51.6101 54.1265 51.6576 54.1629C51.7045 54.2007 51.7659 54.2188 51.8399 54.2188C51.9148 54.2188 51.976 54.2007 52.0229 54.1629C52.0704 54.1265 52.094 54.0797 52.094 54.0237V52.4299C52.094 52.3756 52.0704 52.3287 52.0229 52.2909C51.976 52.2545 51.9148 52.2364 51.8399 52.2364Z" fill="white"/>
<path d="M35.3903 43.2248H36.8384V41.9183H35.3813C35.4275 42.3499 35.4305 42.7854 35.3903 43.2248Z" fill="white"/>
<path d="M34.8814 45.273H36.8384V43.999H35.2771C35.1868 44.4285 35.0526 44.853 34.8814 45.273Z" fill="white"/>
<path d="M38.6151 54.219C38.6898 54.219 38.7512 54.2009 38.798 54.1631C38.8456 54.1267 38.8691 54.0799 38.8691 54.0239V52.4301C38.8691 52.3758 38.8456 52.3289 38.798 52.2911C38.7512 52.2547 38.6898 52.2366 38.6151 52.2366C38.5411 52.2366 38.4797 52.2547 38.4328 52.2911C38.3852 52.3289 38.3617 52.3758 38.3617 52.4301V54.0239C38.3617 54.0799 38.3852 54.1267 38.4328 54.1631C38.4797 54.2009 38.5411 54.219 38.6151 54.219Z" fill="white"/>
<path d="M61.2859 54.219C61.3607 54.219 61.422 54.2009 61.4689 54.1631C61.5165 54.1267 61.54 54.0799 61.54 54.0239V52.4301C61.54 52.3758 61.5165 52.3289 61.4689 52.2911C61.422 52.2547 61.3607 52.2366 61.2859 52.2366C61.2119 52.2366 61.1506 52.2547 61.1037 52.2911C61.0561 52.3289 61.0326 52.3758 61.0326 52.4301V54.0239C61.0326 54.0799 61.0561 54.1267 61.1037 54.1631C61.1506 54.2009 61.2117 54.219 61.2859 54.219Z" fill="white"/>
<path d="M57.5072 54.219C57.582 54.219 57.6433 54.2009 57.6901 54.1631C57.7378 54.1267 57.7612 54.0799 57.7612 54.0239V52.4301C57.7612 52.3758 57.7378 52.3289 57.6901 52.2911C57.6433 52.2547 57.582 52.2366 57.5072 52.2366C57.4331 52.2366 57.3719 52.2547 57.325 52.2911C57.2773 52.3289 57.2539 52.3758 57.2539 52.4301V54.0239C57.2539 54.0799 57.2773 54.1267 57.325 54.1631C57.3719 54.2009 57.4331 54.219 57.5072 54.219Z" fill="white"/>
<path d="M59.3966 54.219C59.4714 54.219 59.5327 54.2009 59.5796 54.1631C59.6271 54.1267 59.6507 54.0799 59.6507 54.0239V52.4301C59.6507 52.3758 59.6271 52.3289 59.5796 52.2911C59.5327 52.2547 59.4714 52.2366 59.3966 52.2366C59.3224 52.2366 59.2612 52.2547 59.2143 52.2911C59.1668 52.3289 59.1432 52.3758 59.1432 52.4301V54.0239C59.1432 54.0799 59.1668 54.1267 59.2143 54.1631C59.2612 54.2009 59.3224 54.219 59.3966 54.219Z" fill="white"/>
<path d="M64.4443 57.6663C64.3051 58.0506 64.1659 58.4347 64.0244 58.8255C64.2526 58.8255 64.469 58.8255 64.6981 58.8255C64.6165 58.4344 64.5368 58.0512 64.4567 57.668C64.4525 57.6673 64.4485 57.6669 64.4443 57.6663Z" fill="white"/>
<path d="M63.1753 54.219C63.2502 54.219 63.3114 54.2009 63.3583 54.1631C63.4058 54.1267 63.4293 54.0799 63.4293 54.0239V52.4301C63.4293 52.3758 63.4058 52.3289 63.3583 52.2911C63.3114 52.2547 63.2502 52.2366 63.1753 52.2366C63.1012 52.2366 63.0399 52.2547 62.993 52.2911C62.9455 52.3289 62.9219 52.3758 62.9219 52.4301V54.0239C62.9219 54.0799 62.9455 54.1267 62.993 54.1631C63.0399 54.2009 63.1012 54.219 63.1753 54.219Z" fill="white"/>
<path d="M53.7292 52.2364C53.6552 52.2364 53.5938 52.2545 53.5471 52.2909C53.4994 52.3287 53.476 52.3756 53.476 52.4299V54.0237C53.476 54.0797 53.4994 54.1265 53.5471 54.1629C53.5938 54.2007 53.6552 54.2188 53.7292 54.2188C53.8041 54.2188 53.8653 54.2007 53.9122 54.1629C53.9599 54.1265 53.9833 54.0797 53.9833 54.0237V52.4299C53.9833 52.3756 53.9599 52.3287 53.9122 52.2909C53.8653 52.2545 53.8041 52.2364 53.7292 52.2364Z" fill="white"/>
<path d="M67.1613 33H27.7258C25.6716 33 24 34.6716 24 36.7266V60.0643C24 62.1193 25.6716 63.7908 27.7258 63.7908H67.1613C69.2163 63.7908 70.8878 62.1193 70.8878 60.0643V36.7266C70.8878 34.6716 69.2163 33 67.1613 33ZM44.7377 57.7779C45.0582 57.7779 45.3183 58.038 45.3183 58.3586C45.3183 58.6792 45.0582 58.9392 44.7377 58.9392H29.0066C28.686 58.9392 28.4259 58.6792 28.4259 58.3586C28.4259 58.038 28.686 57.7779 29.0066 57.7779H44.7377ZM37.8432 54.0237V52.4299C37.8432 52.3392 37.8642 52.2578 37.9067 52.1867C37.9489 52.1156 38.0056 52.0549 38.0767 52.0035C38.1478 51.9521 38.2303 51.9143 38.3232 51.8871C38.4162 51.8614 38.5138 51.8481 38.6151 51.8481C38.7171 51.8481 38.8138 51.8614 38.9077 51.8871C39.0006 51.9143 39.0823 51.9521 39.1534 52.0035C39.2251 52.0549 39.2812 52.1156 39.3242 52.1867C39.3658 52.2578 39.3869 52.3392 39.3869 52.4299V54.0237C39.3869 54.1161 39.3658 54.1976 39.3242 54.2686C39.2812 54.3397 39.2251 54.4003 39.1534 54.4518C39.0823 54.5015 39.0006 54.541 38.9077 54.5683C38.8138 54.5938 38.717 54.6074 38.6151 54.6074C38.5138 54.6074 38.4162 54.5938 38.3232 54.5683C38.2303 54.541 38.1478 54.5015 38.0767 54.4518C38.0056 54.4004 37.9489 54.3397 37.9067 54.2686C37.8642 54.1976 37.8432 54.1161 37.8432 54.0237ZM39.7325 54.0237V52.4299C39.7325 52.3392 39.7536 52.2578 39.796 52.1867C39.8383 52.1156 39.8951 52.0549 39.9662 52.0035C40.0373 51.9521 40.1196 51.9143 40.2125 51.8871C40.3056 51.8614 40.4031 51.8481 40.5044 51.8481C40.6065 51.8481 40.7032 51.8614 40.7971 51.8871C40.89 51.9143 40.9717 51.9521 41.0428 52.0035C41.1146 52.0549 41.1705 52.1156 41.2136 52.1867C41.2552 52.2578 41.2764 52.3392 41.2764 52.4299V54.0237C41.2764 54.1161 41.2552 54.1976 41.2136 54.2686C41.1705 54.3397 41.1146 54.4003 41.0428 54.4518C40.9717 54.5015 40.89 54.541 40.7971 54.5683C40.7032 54.5938 40.6065 54.6074 40.5044 54.6074C40.4031 54.6074 40.3056 54.5938 40.2125 54.5683C40.1196 54.541 40.0373 54.5015 39.9662 54.4518C39.8951 54.4004 39.8383 54.3397 39.796 54.2686C39.7538 54.1976 39.7325 54.1161 39.7325 54.0237ZM41.6219 54.0237V52.4299C41.6219 52.3392 41.6431 52.2578 41.6854 52.1867C41.7278 52.1156 41.7845 52.0549 41.8555 52.0035C41.9266 51.9521 42.009 51.9143 42.102 51.8871C42.1949 51.8614 42.2925 51.8481 42.3938 51.8481C42.4959 51.8481 42.5927 51.8614 42.6864 51.8871C42.7795 51.9143 42.8611 51.9521 42.9321 52.0035C43.004 52.0549 43.0599 52.1156 43.1029 52.1867C43.1446 52.2578 43.1658 52.3392 43.1658 52.4299V54.0237C43.1658 54.1161 43.1446 54.1976 43.1029 54.2686C43.0599 54.3397 43.004 54.4003 42.9321 54.4518C42.8611 54.5015 42.7795 54.541 42.6864 54.5683C42.5927 54.5938 42.4959 54.6074 42.3938 54.6074C42.2925 54.6074 42.1949 54.5938 42.102 54.5683C42.009 54.541 41.9266 54.5015 41.8555 54.4518C41.7845 54.4004 41.7278 54.3397 41.6854 54.2686C41.6431 54.1976 41.6219 54.1161 41.6219 54.0237ZM43.5112 54.0237V52.4299C43.5112 52.3392 43.5324 52.2578 43.5747 52.1867C43.6171 52.1156 43.6738 52.0549 43.7449 52.0035C43.8159 51.9521 43.8983 51.9143 43.9914 51.8871C44.0843 51.8614 44.1818 51.8481 44.2831 51.8481C44.3853 51.8481 44.4821 51.8614 44.5757 51.8871C44.6688 51.9143 44.7504 51.9521 44.8215 52.0035C44.8933 52.0549 44.9492 52.1156 44.9923 52.1867C45.0339 52.2578 45.0551 52.3392 45.0551 52.4299V54.0237C45.0551 54.1161 45.0339 54.1976 44.9923 54.2686C44.9492 54.3397 44.8933 54.4003 44.8215 54.4518C44.7504 54.5015 44.6688 54.541 44.5757 54.5683C44.4821 54.5938 44.3853 54.6074 44.2831 54.6074C44.1818 54.6074 44.0843 54.5938 43.9914 54.5683C43.8983 54.541 43.8159 54.5015 43.7449 54.4518C43.6738 54.4004 43.6171 54.3397 43.5747 54.2686C43.5324 54.1976 43.5112 54.1161 43.5112 54.0237ZM30.2865 54.0237V52.4299C30.2865 52.3392 30.3076 52.2578 30.35 52.1867C30.3923 52.1156 30.449 52.0549 30.5201 52.0035C30.5911 51.9521 30.6735 51.9143 30.7665 51.8871C30.8595 51.8614 30.9571 51.8481 31.0583 51.8481C31.1604 51.8481 31.2571 51.8614 31.351 51.8871C31.444 51.9143 31.5256 51.9521 31.5967 52.0035C31.6685 52.0549 31.7245 52.1156 31.7675 52.1867C31.8092 52.2578 31.8303 52.3392 31.8303 52.4299V54.0237C31.8303 54.1161 31.8092 54.1976 31.7675 54.2686C31.7245 54.3397 31.6685 54.4003 31.5967 54.4518C31.5256 54.5015 31.444 54.541 31.351 54.5683C31.2571 54.5938 31.1604 54.6074 31.0583 54.6074C30.9571 54.6074 30.8595 54.5938 30.7665 54.5683C30.6735 54.541 30.5911 54.5015 30.5201 54.4518C30.449 54.4004 30.3923 54.3397 30.35 54.2686C30.3076 54.1976 30.2865 54.1161 30.2865 54.0237ZM32.1758 54.0237V52.4299C32.1758 52.3392 32.197 52.2578 32.2392 52.1867C32.2816 52.1156 32.3384 52.0549 32.4094 52.0035C32.4805 51.9521 32.5629 51.9143 32.6559 51.8871C32.7488 51.8614 32.8463 51.8481 32.9476 51.8481C33.0498 51.8481 33.1466 51.8614 33.2403 51.8871C33.3333 51.9143 33.415 51.9521 33.486 52.0035C33.5579 52.0549 33.6137 52.1156 33.6569 52.1867C33.6985 52.2578 33.7197 52.3392 33.7197 52.4299V54.0237C33.7197 54.1161 33.6985 54.1976 33.6569 54.2686C33.6137 54.3397 33.5579 54.4003 33.486 54.4518C33.415 54.5015 33.3333 54.541 33.2403 54.5683C33.1466 54.5938 33.0498 54.6074 32.9476 54.6074C32.8463 54.6074 32.7488 54.5938 32.6559 54.5683C32.5629 54.541 32.4805 54.5015 32.4094 54.4518C32.3383 54.4004 32.2816 54.3397 32.2392 54.2686C32.197 54.1976 32.1758 54.1161 32.1758 54.0237ZM34.0651 54.0237V52.4299C34.0651 52.3392 34.0863 52.2578 34.1286 52.1867C34.171 52.1156 34.2277 52.0549 34.2988 52.0035C34.3699 51.9521 34.4522 51.9143 34.5453 51.8871C34.6382 51.8614 34.7357 51.8481 34.8371 51.8481C34.9392 51.8481 35.036 51.8614 35.1296 51.8871C35.2227 51.9143 35.3042 51.9521 35.3753 52.0035C35.4472 52.0549 35.5031 52.1156 35.5463 52.1867C35.5878 52.2578 35.609 52.3392 35.609 52.4299V54.0237C35.609 54.1161 35.5878 54.1976 35.5463 54.2686C35.5031 54.3397 35.4472 54.4003 35.3753 54.4518C35.3042 54.5015 35.2227 54.541 35.1296 54.5683C35.0359 54.5938 34.9392 54.6074 34.8371 54.6074C34.7357 54.6074 34.6382 54.5938 34.5453 54.5683C34.4522 54.541 34.3699 54.5015 34.2988 54.4518C34.2277 54.4004 34.171 54.3397 34.1286 54.2686C34.0863 54.1976 34.0651 54.1161 34.0651 54.0237ZM37.6126 45.7591C37.6126 46.7185 36.8317 47.4995 35.8722 47.4995H30.5081C29.5479 47.4995 28.7669 46.7185 28.7669 45.7591V41.4662C28.7669 40.5068 29.5479 39.7258 30.5081 39.7258H35.8722C36.8317 39.7258 37.6126 40.5068 37.6126 41.4662V45.7591ZM28.8771 51.8871C28.9702 51.8614 29.0677 51.8481 29.1689 51.8481C29.271 51.8481 29.3678 51.8614 29.4616 51.8871C29.5545 51.9143 29.6363 51.9521 29.7073 52.0035C29.7792 52.0549 29.8351 52.1156 29.8781 52.1867C29.9198 52.2578 29.941 52.3392 29.941 52.4299V54.0237C29.941 54.1161 29.9198 54.1976 29.8781 54.2686C29.8351 54.3397 29.7792 54.4004 29.7073 54.4518C29.6363 54.5015 29.5545 54.541 29.4616 54.5683C29.3678 54.594 29.271 54.6076 29.1689 54.6076C29.0677 54.6076 28.9702 54.594 28.8771 54.5683C28.7842 54.541 28.7018 54.5015 28.6307 54.4518C28.5596 54.4004 28.5028 54.3397 28.4606 54.2686C28.4184 54.1976 28.3971 54.1161 28.3971 54.0237V52.4299C28.3971 52.3394 28.4183 52.2578 28.4606 52.1867C28.5028 52.1156 28.5596 52.0551 28.6307 52.0035C28.7018 51.9521 28.7842 51.9143 28.8771 51.8871ZM47.2893 54.0237V52.4299C47.2893 52.3392 47.3103 52.2578 47.3528 52.1867C47.395 52.1156 47.4517 52.0549 47.5228 52.0035C47.5939 51.9521 47.6764 51.9143 47.7693 51.8871C47.8623 51.8614 47.9599 51.8481 48.0612 51.8481C48.1632 51.8481 48.26 51.8614 48.3538 51.8871C48.4467 51.9143 48.5283 51.9521 48.5994 52.0035C48.6712 52.0549 48.7273 52.1156 48.7703 52.1867C48.812 52.2578 48.833 52.3392 48.833 52.4299V54.0237C48.833 54.1161 48.812 54.1976 48.7703 54.2686C48.7273 54.3397 48.6712 54.4003 48.5994 54.4518C48.5283 54.5015 48.4467 54.541 48.3538 54.5683C48.26 54.5938 48.1632 54.6074 48.0612 54.6074C47.9599 54.6074 47.8623 54.5938 47.7693 54.5683C47.6764 54.541 47.5939 54.5015 47.5228 54.4518C47.4517 54.4004 47.395 54.3397 47.3528 54.2686C47.3103 54.1976 47.2893 54.1161 47.2893 54.0237ZM49.1786 54.0237V52.4299C49.1786 52.3392 49.1997 52.2578 49.2421 52.1867C49.2844 52.1156 49.3411 52.0549 49.4121 52.0035C49.4832 51.9521 49.5657 51.9143 49.6586 51.8871C49.7517 51.8614 49.8492 51.8481 49.9505 51.8481C50.0525 51.8481 50.1493 51.8614 50.2431 51.8871C50.3361 51.9143 50.4178 51.9521 50.4889 52.0035C50.5606 52.0549 50.6166 52.1156 50.6597 52.1867C50.7013 52.2578 50.7224 52.3392 50.7224 52.4299V54.0237C50.7224 54.1161 50.7013 54.1976 50.6597 54.2686C50.6166 54.3397 50.5606 54.4003 50.4889 54.4518C50.4178 54.5015 50.3361 54.541 50.2431 54.5683C50.1493 54.5938 50.0525 54.6074 49.9505 54.6074C49.8492 54.6074 49.7517 54.5938 49.6586 54.5683C49.5657 54.541 49.4832 54.5015 49.4121 54.4518C49.3411 54.4004 49.2844 54.3397 49.2421 54.2686C49.1997 54.1976 49.1786 54.1161 49.1786 54.0237ZM51.068 54.0237V52.4299C51.068 52.3392 51.0892 52.2578 51.1315 52.1867C51.1737 52.1156 51.2306 52.0549 51.3016 52.0035C51.3727 51.9521 51.4551 51.9143 51.548 51.8871C51.641 51.8614 51.7386 51.8481 51.8398 51.8481C51.9419 51.8481 52.0387 51.8614 52.1325 51.8871C52.2254 51.9143 52.3072 51.9521 52.3782 52.0035C52.4501 52.0549 52.506 52.1156 52.549 52.1867C52.5907 52.2578 52.6119 52.3392 52.6119 52.4299V54.0237C52.6119 54.1161 52.5907 54.1976 52.549 54.2686C52.506 54.3397 52.4501 54.4003 52.3782 54.4518C52.3072 54.5015 52.2254 54.541 52.1325 54.5683C52.0387 54.5938 51.9419 54.6074 51.8398 54.6074C51.7386 54.6074 51.641 54.5938 51.548 54.5683C51.4551 54.541 51.3727 54.5015 51.3016 54.4518C51.2306 54.4004 51.1737 54.3397 51.1315 54.2686C51.0892 54.1976 51.068 54.1161 51.068 54.0237ZM52.9573 54.0237V52.4299C52.9573 52.3392 52.9785 52.2578 53.0208 52.1867C53.0632 52.1156 53.1199 52.0549 53.191 52.0035C53.262 51.9521 53.3444 51.9143 53.4375 51.8871C53.5304 51.8614 53.6279 51.8481 53.7292 51.8481C53.8314 51.8481 53.9282 51.8614 54.0218 51.8871C54.1149 51.9143 54.1965 51.9521 54.2676 52.0035C54.3394 52.0549 54.3953 52.1156 54.4384 52.1867C54.48 52.2578 54.5012 52.3392 54.5012 52.4299V54.0237C54.5012 54.1161 54.48 54.1976 54.4384 54.2686C54.3953 54.3397 54.3394 54.4003 54.2676 54.4518C54.1965 54.5015 54.1149 54.541 54.0218 54.5683C53.9282 54.5938 53.8314 54.6074 53.7292 54.6074C53.6279 54.6074 53.5304 54.5938 53.4375 54.5683C53.3444 54.541 53.262 54.5015 53.191 54.4518C53.1199 54.4004 53.0632 54.3397 53.0208 54.2686C52.9785 54.1976 52.9573 54.1161 52.9573 54.0237ZM57.0302 56.8034C57.2412 56.8034 57.386 56.921 57.4253 57.1287C57.5342 57.702 57.6417 58.2759 57.7497 58.8497C57.7534 58.8697 57.7584 58.8893 57.7745 58.9133C58.0528 58.2107 58.3308 57.508 58.6086 56.8066C58.891 56.8066 59.1704 56.8066 59.4567 56.8066C59.4413 56.8452 59.4286 56.8794 59.4146 56.9131C58.9999 57.9027 58.5849 58.892 58.1712 59.882C58.1554 59.9196 58.1365 59.9342 58.0942 59.9337C57.8437 59.9316 57.593 59.932 57.3425 59.9334C57.3047 59.9339 57.2888 59.9244 57.2786 59.8851C57.0694 59.0705 56.8565 58.2565 56.649 57.4411C56.6118 57.2951 56.5384 57.194 56.3988 57.1316C56.169 57.0296 55.9301 56.9582 55.686 56.9012C55.6754 56.8987 55.665 56.8947 55.6545 56.8913C55.6545 56.8837 55.6545 56.8764 55.6545 56.8687C55.662 56.8074 55.7008 56.8018 55.7548 56.802C56.1798 56.8044 56.605 56.8032 57.0302 56.8034ZM56.7352 54.0237V52.4299C56.7352 52.3392 56.7564 52.2578 56.7989 52.1867C56.8411 52.1156 56.8978 52.0549 56.9689 52.0035C57.04 51.9521 57.1223 51.9143 57.2154 51.8871C57.3084 51.8614 57.4058 51.8481 57.5073 51.8481C57.6093 51.8481 57.7061 51.8614 57.7997 51.8871C57.8928 51.9143 57.9744 51.9521 58.0455 52.0035C58.1173 52.0549 58.1734 52.1156 58.2164 52.1867C58.2579 52.2578 58.2791 52.3392 58.2791 52.4299V54.0237C58.2791 54.1161 58.2579 54.1976 58.2164 54.2686C58.1734 54.3397 58.1172 54.4003 58.0455 54.4518C57.9744 54.5015 57.8928 54.541 57.7997 54.5683C57.7061 54.5938 57.6093 54.6074 57.5073 54.6074C57.4058 54.6074 57.3084 54.5938 57.2154 54.5683C57.1223 54.541 57.04 54.5015 56.9689 54.4518C56.8978 54.4004 56.8411 54.3397 56.7989 54.2686C56.7564 54.1976 56.7352 54.1161 56.7352 54.0237ZM63.9473 54.0237C63.9473 54.1161 63.9261 54.1976 63.8844 54.2686C63.8414 54.3397 63.7855 54.4003 63.7137 54.4518C63.6426 54.5015 63.5608 54.541 63.4679 54.5683C63.3741 54.5938 63.2773 54.6074 63.1753 54.6074C63.074 54.6074 62.9765 54.5938 62.8834 54.5683C62.7905 54.541 62.7081 54.5015 62.6371 54.4518C62.566 54.4004 62.5092 54.3397 62.4669 54.2686C62.4246 54.1976 62.4034 54.1161 62.4034 54.0237V52.4299C62.4034 52.3392 62.4246 52.2578 62.4669 52.1867C62.5092 52.1156 62.566 52.0549 62.6371 52.0035C62.7081 51.9521 62.7905 51.9143 62.8834 51.8871C62.9765 51.8614 63.074 51.8481 63.1753 51.8481C63.2773 51.8481 63.3741 51.8614 63.4679 51.8871C63.5608 51.9143 63.6426 51.9521 63.7137 52.0035C63.7855 52.0549 63.8414 52.1156 63.8844 52.1867C63.9261 52.2578 63.9473 52.3392 63.9473 52.4299V54.0237ZM63.9832 57.0472C64.0503 56.8871 64.1743 56.8044 64.3468 56.8044C64.5693 56.804 64.7919 56.8041 65.0227 56.8041C65.2401 57.8446 65.4573 58.8842 65.6756 59.9299C65.4223 59.9299 65.1794 59.9299 64.9299 59.9299C64.9064 59.8185 64.8819 59.7069 64.8593 59.5951C64.8327 59.4638 64.8334 59.4639 64.6973 59.4639C64.4135 59.4639 64.1295 59.4646 63.8454 59.4632C63.8059 59.4627 63.7867 59.4743 63.7737 59.5126C63.731 59.6389 63.6852 59.7643 63.6376 59.8888C63.631 59.9065 63.6073 59.9299 63.5912 59.93C63.3222 59.9325 63.0533 59.9317 62.7784 59.9317C62.7852 59.9121 62.7897 59.8966 62.7959 59.882C63.1915 58.9369 63.5872 57.9922 63.9832 57.0472ZM62.6337 56.7925C62.7222 56.8114 62.8092 56.8379 62.8967 56.8622C62.9179 56.8679 62.9379 56.8777 62.9627 56.8871C62.9158 57.1059 62.8695 57.3225 62.823 57.5393C62.7165 57.5059 62.6146 57.4675 62.5096 57.4421C62.3206 57.3962 62.1276 57.3763 61.9372 57.4275C61.8684 57.4461 61.7991 57.485 61.7452 57.532C61.654 57.6116 61.6538 57.7279 61.7419 57.811C61.802 57.8677 61.8725 57.9151 61.9437 57.9572C62.0857 58.0411 62.2348 58.1133 62.3748 58.2002C62.5632 58.3169 62.7199 58.4662 62.7826 58.6885C62.8738 59.0114 62.7741 59.442 62.4146 59.7015C62.2075 59.8509 61.9734 59.9291 61.7243 59.961C61.3321 60.0113 60.9473 59.9729 60.5724 59.8442C60.5517 59.8371 60.5316 59.8278 60.5051 59.817C60.5536 59.59 60.6015 59.3644 60.6508 59.1338C60.6825 59.1476 60.7098 59.1586 60.7361 59.1711C60.9681 59.2811 61.2125 59.3337 61.4686 59.3308C61.5862 59.3295 61.7012 59.3113 61.8074 59.2552C62.001 59.1529 62.0268 58.9545 61.8562 58.8192C61.7727 58.7532 61.6767 58.7011 61.5817 58.6515C61.4234 58.5691 61.2669 58.4857 61.1294 58.37C60.7369 58.0404 60.7869 57.5796 60.9993 57.2693C61.1741 57.0142 61.431 56.8794 61.7232 56.8055C61.8163 56.782 61.913 56.7733 62.0078 56.7574C62.0219 56.7549 62.0355 56.7501 62.0494 56.7462C62.1535 56.7462 62.2574 56.7462 62.3613 56.7462C62.4522 56.7612 62.5437 56.773 62.6337 56.7925ZM62.0578 54.0237C62.0578 54.1161 62.0367 54.1976 61.9951 54.2686C61.9521 54.3397 61.896 54.4003 61.8243 54.4518C61.7532 54.5015 61.6715 54.541 61.5786 54.5683C61.4848 54.5938 61.388 54.6074 61.2859 54.6074C61.1847 54.6074 61.0871 54.5938 60.9941 54.5683C60.9012 54.541 60.8186 54.5015 60.7476 54.4518C60.6765 54.4004 60.6198 54.3397 60.5775 54.2686C60.5351 54.1976 60.5141 54.1161 60.5141 54.0237V52.4299C60.5141 52.3392 60.5351 52.2578 60.5775 52.1867C60.6198 52.1156 60.6765 52.0549 60.7476 52.0035C60.8186 51.9521 60.9012 51.9143 60.9941 51.8871C61.0871 51.8614 61.1847 51.8481 61.2859 51.8481C61.388 51.8481 61.4848 51.8614 61.5786 51.8871C61.6715 51.9143 61.7532 51.9521 61.8243 52.0035C61.896 52.0549 61.9521 52.1156 61.9951 52.1867C62.0367 52.2578 62.0578 52.3392 62.0578 52.4299V54.0237ZM60.6152 56.8066C60.5937 56.9097 60.5732 57.0091 60.5522 57.1085C60.3561 58.0252 60.1595 58.9418 59.9655 59.8593C59.9531 59.9179 59.9322 59.9351 59.8723 59.9342C59.6515 59.93 59.4305 59.9325 59.2096 59.9325C59.1893 59.9325 59.1691 59.9325 59.1386 59.9325C59.363 58.8847 59.5855 57.8451 59.8078 56.8066C60.0785 56.8066 60.3436 56.8066 60.6152 56.8066ZM60.1685 54.0237C60.1685 54.1161 60.1474 54.1976 60.1058 54.2686C60.0627 54.3397 60.0067 54.4003 59.9348 54.4518C59.8637 54.5015 59.7821 54.541 59.6892 54.5683C59.5954 54.5938 59.4986 54.6074 59.3966 54.6074C59.2953 54.6074 59.1978 54.5938 59.1047 54.5683C59.0118 54.541 58.9293 54.5015 58.8582 54.4518C58.7871 54.4004 58.7305 54.3397 58.6882 54.2686C58.6458 54.1976 58.6247 54.1161 58.6247 54.0237V52.4299C58.6247 52.3392 58.6458 52.2578 58.6882 52.1867C58.7305 52.1156 58.7871 52.0549 58.8582 52.0035C58.9293 51.9521 59.0118 51.9143 59.1047 51.8871C59.1978 51.8614 59.2953 51.8481 59.3966 51.8481C59.4986 51.8481 59.5954 51.8614 59.6892 51.8871C59.7821 51.9143 59.8637 51.9521 59.9348 52.0035C60.0067 52.0549 60.0627 52.1156 60.1058 52.1867C60.1474 52.2578 60.1685 52.3392 60.1685 52.4299V54.0237ZM65.154 39.4793H50.969C50.6485 39.4793 50.3884 39.2193 50.3884 38.8987C50.3884 38.5781 50.6485 38.318 50.969 38.318H65.154C65.4745 38.318 65.7346 38.5781 65.7346 38.8987C65.7346 39.2193 65.4746 39.4793 65.154 39.4793Z" fill="white"/>
<path d="M67.3549 50.0322H27.0968V56.2258H67.3549V50.0322Z" fill="white"/>
<path d="M67.3549 50.0322H27.0968V56.2258H67.3549V50.0322Z" fill="white"/>
<path d="M68.9032 54.6774H54.9677V62.4194H68.9032V54.6774Z" fill="white"/>
<path d="M68.9032 54.6774H54.9677V62.4194H68.9032V54.6774Z" fill="white"/>
</g>
<defs>
<clipPath id="clip0_3_46">
<rect width="48" height="30.9677" fill="white" transform="translate(24 33)"/>
</clipPath>
</defs>
</svg>
