<svg width="96" height="96" viewBox="0 0 96 96" fill="none" xmlns="http://www.w3.org/2000/svg">
<g clip-path="url(#clip0_3_5)">
<path d="M69.9145 26.9544C69.3863 26.3487 68.6258 26.0003 67.8238 26.0003H29.6083L35.8214 26.0005C35.8214 26.0005 32.4169 26 31.0646 26L26.3423 26.0003C24.813 26.0003 37.7991 26.0003 37.7991 26.0003C37.7991 26.0003 30.838 26.0001 32.3673 26.0001L28.2081 26.0003H29.6083C26.6724 26.0003 24.4392 28.6364 24.9217 31.5323L29.1437 56.8736C29.1658 56.998 29.2294 57.1004 29.2681 57.2165C29.3124 57.363 29.3483 57.5013 29.4175 57.6341C29.506 57.8165 29.6249 57.9714 29.7493 58.1291C29.8351 58.237 29.9125 58.3449 30.012 58.4388C30.1724 58.5881 30.3577 58.6933 30.5458 58.7984C30.6509 58.8564 30.7421 58.9339 30.8555 58.9781C31.1763 59.1081 31.5137 59.1854 31.8704 59.1854H62.293C63.8222 59.1854 65.0583 57.9493 65.0583 56.4201C65.0583 54.8908 63.8222 53.6546 62.293 53.6546H34.2155L33.7564 50.8892H65.0583C66.4356 50.8892 67.6025 49.877 67.7961 48.5164L70.5616 29.1584C70.675 28.362 70.4371 27.5572 69.9145 26.9544ZM64.6352 31.5312L63.8471 37.062H53.9966V31.5312H64.6352ZM51.2313 31.5312V37.062H42.9349V31.5312H51.2313ZM51.2313 39.8275V45.3584H42.9349V39.8275H51.2313ZM40.1695 31.5312V37.062H31.8732C31.7266 37.062 31.5939 37.1035 31.4639 37.145L30.5292 31.5312H40.1695ZM31.9119 39.8275H40.1695V45.3584H32.8328L31.9119 39.8275ZM53.9966 45.3584V39.8275H63.4489L62.6608 45.3584H53.9966Z" fill="white"/>
<path d="M36.0214 70.2473C38.3123 70.2473 40.1695 68.39 40.1695 66.099C40.1695 63.8082 38.3123 61.9509 36.0214 61.9509C33.7304 61.9509 31.8732 63.8082 31.8732 66.099C31.8732 68.39 33.7304 70.2473 36.0214 70.2473Z" fill="white"/>
<path d="M60.9102 70.2473C63.2013 70.2473 65.0583 68.39 65.0583 66.099C65.0583 63.8082 63.2013 61.9509 60.9102 61.9509C58.6192 61.9509 56.7621 63.8082 56.7621 66.099C56.7621 68.39 58.6192 70.2473 60.9102 70.2473Z" fill="white"/>
</g>
<defs>
<clipPath id="clip0_3_5">
<rect width="48" height="44.4444" fill="white" transform="translate(24 26)"/>
</clipPath>
</defs>
</svg>
