<svg width="96" height="96" viewBox="0 0 96 96" fill="none" xmlns="http://www.w3.org/2000/svg">
<g clip-path="url(#clip0_12_3)">
<path d="M21.7619 -2H74.4422C75.1857 -2 75.9189 -1.8265 76.5839 -1.49325C77.2489 -1.16 77.8274 -0.676141 78.2735 -0.0799995L91.2041 17.2V89.2C91.2041 90.473 90.6995 91.6939 89.8014 92.5941C88.9033 93.4943 87.6851 94 86.415 94H9.78912C8.51896 94 7.30083 93.4943 6.4027 92.5941C5.50457 91.6939 5 90.473 5 89.2V17.2L17.9306 -0.0799995C18.3767 -0.676141 18.9552 -1.16 19.6201 -1.49325C20.2851 -1.8265 21.0184 -2 21.7619 -2ZM79.2313 17.2L72.0476 7.6H24.1565L16.9728 17.2H79.2313ZM33.7347 36.4H24.1565V46C24.1565 52.3652 26.6793 58.4697 31.17 62.9706C35.6606 67.4714 41.7513 70 48.102 70C54.4528 70 60.5435 67.4714 65.0341 62.9706C69.5248 58.4697 72.0476 52.3652 72.0476 46V36.4H62.4694V46C62.4694 49.8191 60.9557 53.4818 58.2613 56.1823C55.5669 58.8829 51.9125 60.4 48.102 60.4C44.2916 60.4 40.6372 58.8829 37.9428 56.1823C35.2484 53.4818 33.7347 49.8191 33.7347 46V36.4Z" fill="black"/>
</g>
<defs>
<clipPath id="clip0_12_3">
<rect width="96" height="96" fill="white"/>
</clipPath>
</defs>
</svg>
