<svg width="64" height="64" viewBox="0 0 64 64" fill="none" xmlns="http://www.w3.org/2000/svg">
<g clip-path="url(#clip0_24_2)">
<path fill-rule="evenodd" clip-rule="evenodd" d="M58 0H6C2.70016 0 0 2.70016 0 6V57.9994C0 61.2998 2.70016 63.9994 6 63.9994L58 64C61.2998 64 64 61.2998 64 58V6C64 2.70016 61.2998 0 58 0ZM43.7773 20.4621C41.7024 19.1098 40.2054 16.9446 39.7382 14.4218C39.6378 13.8771 39.5814 13.3158 39.5814 12.7418H32.96L32.9491 39.2794C32.8378 42.2509 30.3917 44.6362 27.3939 44.6362C26.4614 44.6362 25.5846 44.4038 24.8115 43.9968C23.04 43.0643 21.8272 41.2077 21.8272 39.0707C21.8272 36.0013 24.3245 33.504 27.3933 33.504C27.9661 33.504 28.5158 33.5987 29.0355 33.7606V27.001C28.4973 26.9274 27.9507 26.8819 27.3933 26.8819C20.6726 26.8819 15.2058 32.3494 15.2058 39.0707C15.2058 43.1936 17.2653 46.8429 20.409 49.0496C22.3885 50.4397 24.7974 51.2582 27.3939 51.2582C34.1146 51.2582 39.5814 45.7907 39.5814 39.0707V25.6134C42.1786 27.4771 45.3606 28.5754 48.7942 28.5754V21.9539C46.9453 21.9539 45.223 21.4042 43.7773 20.4621Z" fill="white"/>
</g>
<defs>
<clipPath id="clip0_24_2">
<rect width="64" height="64" rx="32" fill="white"/>
</clipPath>
</defs>
</svg>
