<svg width="64" height="64" viewBox="0 0 64 64" fill="none" xmlns="http://www.w3.org/2000/svg">
<g clip-path="url(#clip0_24_32)">
<path d="M33.3334 2C16.3894 2 2.66669 15.7227 2.66669 32.6667C2.66669 46.2373 11.4454 57.6987 23.6347 61.76C25.168 62.0293 25.7414 61.1093 25.7414 60.304C25.7414 59.576 25.704 57.1627 25.704 54.592C18 56.0107 16.008 52.7147 15.3947 50.992C15.048 50.1093 13.5547 47.3867 12.248 46.6587C11.176 46.0827 9.64269 44.664 12.2107 44.6267C14.6267 44.5893 16.352 46.8507 16.928 47.7707C19.688 52.4107 24.096 51.104 25.8587 50.2987C26.1254 48.3067 26.9307 46.9653 27.8134 46.1973C20.9894 45.432 13.8614 42.7867 13.8614 31.056C13.8614 27.7227 15.048 24.9627 17.0027 22.816C16.696 22.048 15.624 18.904 17.3094 14.688C17.3094 14.688 19.8774 13.8827 25.744 17.832C28.1974 17.1413 30.8027 16.7973 33.4107 16.7973C36.016 16.7973 38.624 17.144 41.0774 17.832C46.944 13.8453 49.5094 14.688 49.5094 14.688C51.1974 18.904 50.1227 22.048 49.816 22.816C51.7707 24.9627 52.96 27.6827 52.96 31.056C52.96 42.824 45.792 45.4293 38.968 46.1973C40.08 47.1573 41.0374 48.9973 41.0374 51.872C41.0374 55.9733 41 59.2693 41 60.304C41 61.1093 41.576 62.0693 43.1067 61.7627C55.224 57.6987 64 46.1973 64 32.6667C64 15.7227 50.2774 2 33.3334 2Z" fill="white"/>
</g>
<defs>
<clipPath id="clip0_24_32">
<rect width="64" height="64" fill="white"/>
</clipPath>
</defs>
</svg>
