<svg width="64" height="64" viewBox="0 0 64 64" fill="none" xmlns="http://www.w3.org/2000/svg">
<g clip-path="url(#clip0_24_48)">
<path fill-rule="evenodd" clip-rule="evenodd" d="M0 0V64H64V0H0ZM53.3792 42.4736C52.8362 44.8297 50.9088 46.5694 48.5888 46.8284C43.0969 47.4407 37.5365 47.4448 31.9977 47.4407C26.4613 47.4448 20.9009 47.4407 15.4073 46.8284C13.0867 46.5695 11.1595 44.8297 10.6192 42.4736C9.84615 39.1193 9.84615 35.4547 9.84615 31.9999C9.84615 28.545 9.8553 24.8821 10.6277 21.5278C11.1679 19.1695 13.0958 17.4321 15.4135 17.1731C20.9076 16.5591 26.4704 16.5567 32.0069 16.5591C37.5428 16.5569 43.1038 16.5591 48.5974 17.1731C50.918 17.4321 52.8452 19.1695 53.3878 21.5278C54.1607 24.8821 54.1539 28.545 54.1539 31.9999C54.1539 35.4547 54.1516 39.1193 53.3792 42.4736Z" fill="white"/>
<path fill-rule="evenodd" clip-rule="evenodd" d="M26.2829 38.8781C30.9903 36.437 35.6562 34.0162 40.3682 31.5734C35.6425 29.1076 30.9773 26.6755 26.2829 24.2258V38.8781Z" fill="white"/>
</g>
<defs>
<clipPath id="clip0_24_48">
<rect width="64" height="64" rx="32" fill="white"/>
</clipPath>
</defs>
</svg>
