<svg width="144" height="62" viewBox="0 0 144 62" fill="none" xmlns="http://www.w3.org/2000/svg">
<rect x="44" y="37" width="56" height="1" fill="black" fill-opacity="0.66"/>
<g filter="url(#filter0_bd_18_7)">
<path d="M79.5426 24H71.75H64.6334C61.0646 24 57.681 25.5884 55.4012 28.334L50.9738 33.666C48.694 36.4116 45.3104 38 41.7416 38H71.75H102.082C98.3293 38 94.7924 36.2441 92.5235 33.2545L89.1015 28.7455C86.8326 25.7559 83.2957 24 79.5426 24Z" fill="black" fill-opacity="0.66" shape-rendering="crispEdges"/>
</g>
<g filter="url(#filter1_bd_18_7)">
<path d="M102.219 37.5H101.951C98.2725 37.5 94.7969 35.8125 92.5216 32.9216L89.1034 28.5784C86.8281 25.6875 83.3525 24 79.6736 24H71.75H64.5026C61.0091 24 57.689 25.5224 55.4094 28.1697L50.9656 33.3303C48.686 35.9776 45.3659 37.5 41.8724 37.5H41.2812" stroke="#2F2F2F" stroke-width="1.5"/>
</g>
<defs>
<filter id="filter0_bd_18_7" x="-7" y="-6" width="157.5" height="74" filterUnits="userSpaceOnUse" color-interpolation-filters="sRGB">
<feFlood flood-opacity="0" result="BackgroundImageFix"/>
<feGaussianBlur in="BackgroundImageFix" stdDeviation="15"/>
<feComposite in2="SourceAlpha" operator="in" result="effect1_backgroundBlur_18_7"/>
<feColorMatrix in="SourceAlpha" type="matrix" values="0 0 0 0 0 0 0 0 0 0 0 0 0 0 0 0 0 0 127 0" result="hardAlpha"/>
<feOffset/>
<feGaussianBlur stdDeviation="11.5"/>
<feComposite in2="hardAlpha" operator="out"/>
<feColorMatrix type="matrix" values="0 0 0 0 0.184314 0 0 0 0 0.184314 0 0 0 0 0.184314 0 0 0 0.5 0"/>
<feBlend mode="normal" in2="effect1_backgroundBlur_18_7" result="effect2_dropShadow_18_7"/>
<feBlend mode="normal" in="SourceGraphic" in2="effect2_dropShadow_18_7" result="shape"/>
</filter>
<filter id="filter1_bd_18_7" x="11.2812" y="-6.75" width="120.938" height="75" filterUnits="userSpaceOnUse" color-interpolation-filters="sRGB">
<feFlood flood-opacity="0" result="BackgroundImageFix"/>
<feGaussianBlur in="BackgroundImageFix" stdDeviation="15"/>
<feComposite in2="SourceAlpha" operator="in" result="effect1_backgroundBlur_18_7"/>
<feColorMatrix in="SourceAlpha" type="matrix" values="0 0 0 0 0 0 0 0 0 0 0 0 0 0 0 0 0 0 127 0" result="hardAlpha"/>
<feOffset/>
<feGaussianBlur stdDeviation="11.5"/>
<feComposite in2="hardAlpha" operator="out"/>
<feColorMatrix type="matrix" values="0 0 0 0 0.184314 0 0 0 0 0.184314 0 0 0 0 0.184314 0 0 0 0.5 0"/>
<feBlend mode="normal" in2="effect1_backgroundBlur_18_7" result="effect2_dropShadow_18_7"/>
<feBlend mode="normal" in="SourceGraphic" in2="effect2_dropShadow_18_7" result="shape"/>
</filter>
</defs>
</svg>
