<svg width="1983" height="856" viewBox="0 0 1983 856" fill="none" xmlns="http://www.w3.org/2000/svg">
<mask id="mask0_361_3540" style="mask-type:alpha" maskUnits="userSpaceOnUse" x="0" y="0" width="1982" height="856">
<rect width="1982" height="856" fill="url(#paint0_linear_361_3540)"/>
</mask>
<g mask="url(#mask0_361_3540)">
<path d="M5.6925 429.245L5.6925 566.9M7.245 568.452H144.9M146.452 566.9L146.452 429.245M7.245 427.692H144.9M12.42 428.21C12.42 431.64 9.63968 434.42 6.21 434.42C2.78031 434.42 0 431.64 0 428.21C0 424.78 2.78031 422 6.21 422C9.63968 422 12.42 424.78 12.42 428.21ZM152.145 428.21C152.145 431.64 149.365 434.42 145.935 434.42C142.505 434.42 139.725 431.64 139.725 428.21C139.725 424.78 142.505 422 145.935 422C149.365 422 152.145 424.78 152.145 428.21ZM152.145 567.935C152.145 571.365 149.365 574.145 145.935 574.145C142.505 574.145 139.725 571.365 139.725 567.935C139.725 564.505 142.505 561.725 145.935 561.725C149.365 561.725 152.145 564.505 152.145 567.935ZM12.42 567.935C12.42 571.365 9.63968 574.145 6.21 574.145C2.78031 574.145 0 571.365 0 567.935C0 564.505 2.78031 561.725 6.21 561.725C9.63968 561.725 12.42 564.505 12.42 567.935Z" stroke="white" stroke-width="3"/>
<path d="M5.6925 710.765L5.6925 848.419M7.245 849.972H144.9M146.452 848.419L146.452 710.765M7.245 709.212H144.9M12.42 709.73C12.42 713.159 9.63968 715.94 6.21 715.94C2.78031 715.94 0 713.159 0 709.73C0 706.3 2.78031 703.52 6.21 703.52C9.63968 703.52 12.42 706.3 12.42 709.73ZM152.145 709.73C152.145 713.159 149.365 715.94 145.935 715.94C142.505 715.94 139.725 713.159 139.725 709.73C139.725 706.3 142.505 703.52 145.935 703.52C149.365 703.52 152.145 706.3 152.145 709.73ZM152.145 849.454C152.145 852.884 149.365 855.664 145.935 855.664C142.505 855.664 139.725 852.884 139.725 849.454C139.725 846.025 142.505 843.244 145.935 843.244C149.365 843.244 152.145 846.025 152.145 849.454ZM12.42 849.454C12.42 852.884 9.63968 855.664 6.21 855.664C2.78031 855.664 0 852.884 0 849.454C0 846.025 2.78031 843.244 6.21 843.244C9.63968 843.244 12.42 846.025 12.42 849.454Z" stroke="white" stroke-width="3"/>
<path d="M5.6925 570.005L5.6925 707.66M7.245 709.212H144.9M146.452 707.66L146.452 570.005M7.245 568.452H144.9M12.42 568.97C12.42 572.399 9.63968 575.18 6.21 575.18C2.78031 575.18 0 572.399 0 568.97C0 565.54 2.78031 562.76 6.21 562.76C9.63968 562.76 12.42 565.54 12.42 568.97ZM152.145 568.97C152.145 572.399 149.365 575.18 145.935 575.18C142.505 575.18 139.725 572.399 139.725 568.97C139.725 565.54 142.505 562.76 145.935 562.76C149.365 562.76 152.145 565.54 152.145 568.97ZM152.145 708.695C152.145 712.124 149.365 714.905 145.935 714.905C142.505 714.905 139.725 712.124 139.725 708.695C139.725 705.265 142.505 702.485 145.935 702.485C149.365 702.485 152.145 705.265 152.145 708.695ZM12.42 708.695C12.42 712.124 9.63968 714.905 6.21 714.905C2.78031 714.905 0 712.124 0 708.695C0 705.265 2.78031 702.485 6.21 702.485C9.63968 702.485 12.42 705.265 12.42 708.695Z" stroke="white" stroke-width="3"/>
<path d="M146.452 429.245L146.452 566.9M148.005 568.452H285.66M287.212 566.9L287.212 429.245M148.005 427.692H285.66M153.18 428.21C153.18 431.64 150.399 434.42 146.97 434.42C143.54 434.42 140.76 431.64 140.76 428.21C140.76 424.78 143.54 422 146.97 422C150.399 422 153.18 424.78 153.18 428.21ZM292.905 428.21C292.905 431.64 290.124 434.42 286.695 434.42C283.265 434.42 280.485 431.64 280.485 428.21C280.485 424.78 283.265 422 286.695 422C290.124 422 292.905 424.78 292.905 428.21ZM292.905 567.935C292.905 571.365 290.124 574.145 286.695 574.145C283.265 574.145 280.485 571.365 280.485 567.935C280.485 564.505 283.265 561.725 286.695 561.725C290.124 561.725 292.905 564.505 292.905 567.935ZM153.18 567.935C153.18 571.365 150.399 574.145 146.97 574.145C143.54 574.145 140.76 571.365 140.76 567.935C140.76 564.505 143.54 561.725 146.97 561.725C150.399 561.725 153.18 564.505 153.18 567.935Z" stroke="white" stroke-width="3"/>
<path d="M146.452 710.765L146.452 848.419M148.005 849.972H285.66M287.212 848.419L287.212 710.765M148.005 709.212H285.66M153.18 709.73C153.18 713.159 150.399 715.94 146.97 715.94C143.54 715.94 140.76 713.159 140.76 709.73C140.76 706.3 143.54 703.52 146.97 703.52C150.399 703.52 153.18 706.3 153.18 709.73ZM292.905 709.73C292.905 713.159 290.124 715.94 286.695 715.94C283.265 715.94 280.485 713.159 280.485 709.73C280.485 706.3 283.265 703.52 286.695 703.52C290.124 703.52 292.905 706.3 292.905 709.73ZM292.905 849.454C292.905 852.884 290.124 855.664 286.695 855.664C283.265 855.664 280.485 852.884 280.485 849.454C280.485 846.025 283.265 843.244 286.695 843.244C290.124 843.244 292.905 846.025 292.905 849.454ZM153.18 849.454C153.18 852.884 150.399 855.664 146.97 855.664C143.54 855.664 140.76 852.884 140.76 849.454C140.76 846.025 143.54 843.244 146.97 843.244C150.399 843.244 153.18 846.025 153.18 849.454Z" stroke="white" stroke-width="3"/>
<path d="M146.452 570.005L146.452 707.66M148.005 709.212H285.66M287.212 707.66L287.212 570.005M148.005 568.452H285.66M153.18 568.97C153.18 572.399 150.399 575.18 146.97 575.18C143.54 575.18 140.76 572.399 140.76 568.97C140.76 565.54 143.54 562.76 146.97 562.76C150.399 562.76 153.18 565.54 153.18 568.97ZM292.905 568.97C292.905 572.399 290.124 575.18 286.695 575.18C283.265 575.18 280.485 572.399 280.485 568.97C280.485 565.54 283.265 562.76 286.695 562.76C290.124 562.76 292.905 565.54 292.905 568.97ZM292.905 708.695C292.905 712.124 290.124 714.905 286.695 714.905C283.265 714.905 280.485 712.124 280.485 708.695C280.485 705.265 283.265 702.485 286.695 702.485C290.124 702.485 292.905 705.265 292.905 708.695ZM153.18 708.695C153.18 712.124 150.399 714.905 146.97 714.905C143.54 714.905 140.76 712.124 140.76 708.695C140.76 705.265 143.54 702.485 146.97 702.485C150.399 702.485 153.18 705.265 153.18 708.695Z" stroke="white" stroke-width="3"/>
<path d="M287.212 429.245L287.212 566.9M288.765 568.452H426.419M427.972 566.9L427.972 429.245M288.765 427.692H426.419M293.94 428.21C293.94 431.64 291.159 434.42 287.73 434.42C284.3 434.42 281.52 431.64 281.52 428.21C281.52 424.78 284.3 422 287.73 422C291.159 422 293.94 424.78 293.94 428.21ZM433.664 428.21C433.664 431.64 430.884 434.42 427.454 434.42C424.025 434.42 421.244 431.64 421.244 428.21C421.244 424.78 424.025 422 427.454 422C430.884 422 433.664 424.78 433.664 428.21ZM433.664 567.935C433.664 571.365 430.884 574.145 427.454 574.145C424.025 574.145 421.244 571.365 421.244 567.935C421.244 564.505 424.025 561.725 427.454 561.725C430.884 561.725 433.664 564.505 433.664 567.935ZM293.94 567.935C293.94 571.365 291.159 574.145 287.73 574.145C284.3 574.145 281.52 571.365 281.52 567.935C281.52 564.505 284.3 561.725 287.73 561.725C291.159 561.725 293.94 564.505 293.94 567.935Z" stroke="white" stroke-width="3"/>
<path d="M287.212 710.765L287.212 848.419M288.765 849.972H426.419M427.972 848.419L427.972 710.765M288.765 709.212H426.419M293.94 709.73C293.94 713.159 291.159 715.94 287.73 715.94C284.3 715.94 281.52 713.159 281.52 709.73C281.52 706.3 284.3 703.52 287.73 703.52C291.159 703.52 293.94 706.3 293.94 709.73ZM433.664 709.73C433.664 713.159 430.884 715.94 427.454 715.94C424.025 715.94 421.244 713.159 421.244 709.73C421.244 706.3 424.025 703.52 427.454 703.52C430.884 703.52 433.664 706.3 433.664 709.73ZM433.664 849.454C433.664 852.884 430.884 855.664 427.454 855.664C424.025 855.664 421.244 852.884 421.244 849.454C421.244 846.025 424.025 843.244 427.454 843.244C430.884 843.244 433.664 846.025 433.664 849.454ZM293.94 849.454C293.94 852.884 291.159 855.664 287.73 855.664C284.3 855.664 281.52 852.884 281.52 849.454C281.52 846.025 284.3 843.244 287.73 843.244C291.159 843.244 293.94 846.025 293.94 849.454Z" stroke="white" stroke-width="3"/>
<path d="M287.212 570.005L287.212 707.66M288.765 709.212H426.419M427.972 707.66L427.972 570.005M288.765 568.452H426.419M293.94 568.97C293.94 572.399 291.159 575.18 287.73 575.18C284.3 575.18 281.52 572.399 281.52 568.97C281.52 565.54 284.3 562.76 287.73 562.76C291.159 562.76 293.94 565.54 293.94 568.97ZM433.664 568.97C433.664 572.399 430.884 575.18 427.454 575.18C424.025 575.18 421.244 572.399 421.244 568.97C421.244 565.54 424.025 562.76 427.454 562.76C430.884 562.76 433.664 565.54 433.664 568.97ZM433.664 708.695C433.664 712.124 430.884 714.905 427.454 714.905C424.025 714.905 421.244 712.124 421.244 708.695C421.244 705.265 424.025 702.485 427.454 702.485C430.884 702.485 433.664 705.265 433.664 708.695ZM293.94 708.695C293.94 712.124 291.159 714.905 287.73 714.905C284.3 714.905 281.52 712.124 281.52 708.695C281.52 705.265 284.3 702.485 287.73 702.485C291.159 702.485 293.94 705.265 293.94 708.695Z" stroke="white" stroke-width="3"/>
<path d="M427.972 429.245L427.972 566.9M429.524 568.452H567.179M568.732 566.9L568.732 429.245M429.524 427.692H567.179M434.699 428.21C434.699 431.64 431.919 434.42 428.489 434.42C425.06 434.42 422.279 431.64 422.279 428.21C422.279 424.78 425.06 422 428.489 422C431.919 422 434.699 424.78 434.699 428.21ZM574.424 428.21C574.424 431.64 571.644 434.42 568.214 434.42C564.785 434.42 562.004 431.64 562.004 428.21C562.004 424.78 564.785 422 568.214 422C571.644 422 574.424 424.78 574.424 428.21ZM574.424 567.935C574.424 571.365 571.644 574.145 568.214 574.145C564.785 574.145 562.004 571.365 562.004 567.935C562.004 564.505 564.785 561.725 568.214 561.725C571.644 561.725 574.424 564.505 574.424 567.935ZM434.699 567.935C434.699 571.365 431.919 574.145 428.489 574.145C425.06 574.145 422.279 571.365 422.279 567.935C422.279 564.505 425.06 561.725 428.489 561.725C431.919 561.725 434.699 564.505 434.699 567.935Z" stroke="white" stroke-width="3"/>
<path d="M427.972 710.765L427.972 848.419M429.524 849.972H567.179M568.732 848.419L568.732 710.765M429.524 709.212H567.179M434.699 709.73C434.699 713.159 431.919 715.94 428.489 715.94C425.06 715.94 422.279 713.159 422.279 709.73C422.279 706.3 425.06 703.52 428.489 703.52C431.919 703.52 434.699 706.3 434.699 709.73ZM574.424 709.73C574.424 713.159 571.644 715.94 568.214 715.94C564.785 715.94 562.004 713.159 562.004 709.73C562.004 706.3 564.785 703.52 568.214 703.52C571.644 703.52 574.424 706.3 574.424 709.73ZM574.424 849.454C574.424 852.884 571.644 855.664 568.214 855.664C564.785 855.664 562.004 852.884 562.004 849.454C562.004 846.025 564.785 843.244 568.214 843.244C571.644 843.244 574.424 846.025 574.424 849.454ZM434.699 849.454C434.699 852.884 431.919 855.664 428.489 855.664C425.06 855.664 422.279 852.884 422.279 849.454C422.279 846.025 425.06 843.244 428.489 843.244C431.919 843.244 434.699 846.025 434.699 849.454Z" stroke="white" stroke-width="3"/>
<path d="M427.972 570.005L427.972 707.66M429.524 709.212H567.179M568.732 707.66L568.732 570.005M429.524 568.452H567.179M434.699 568.97C434.699 572.399 431.919 575.18 428.489 575.18C425.06 575.18 422.279 572.399 422.279 568.97C422.279 565.54 425.06 562.76 428.489 562.76C431.919 562.76 434.699 565.54 434.699 568.97ZM574.424 568.97C574.424 572.399 571.644 575.18 568.214 575.18C564.785 575.18 562.004 572.399 562.004 568.97C562.004 565.54 564.785 562.76 568.214 562.76C571.644 562.76 574.424 565.54 574.424 568.97ZM574.424 708.695C574.424 712.124 571.644 714.905 568.214 714.905C564.785 714.905 562.004 712.124 562.004 708.695C562.004 705.265 564.785 702.485 568.214 702.485C571.644 702.485 574.424 705.265 574.424 708.695ZM434.699 708.695C434.699 712.124 431.919 714.905 428.489 714.905C425.06 714.905 422.279 712.124 422.279 708.695C422.279 705.265 425.06 702.485 428.489 702.485C431.919 702.485 434.699 705.265 434.699 708.695Z" stroke="white" stroke-width="3"/>
<path d="M568.733 429.245L568.733 566.9M570.285 568.452H707.94M709.492 566.9L709.492 429.245M570.285 427.692H707.94M575.46 428.21C575.46 431.64 572.68 434.42 569.25 434.42C565.82 434.42 563.04 431.64 563.04 428.21C563.04 424.78 565.82 422 569.25 422C572.68 422 575.46 424.78 575.46 428.21ZM715.185 428.21C715.185 431.64 712.405 434.42 708.975 434.42C705.545 434.42 702.765 431.64 702.765 428.21C702.765 424.78 705.545 422 708.975 422C712.405 422 715.185 424.78 715.185 428.21ZM715.185 567.935C715.185 571.365 712.405 574.145 708.975 574.145C705.545 574.145 702.765 571.365 702.765 567.935C702.765 564.505 705.545 561.725 708.975 561.725C712.405 561.725 715.185 564.505 715.185 567.935ZM575.46 567.935C575.46 571.365 572.68 574.145 569.25 574.145C565.82 574.145 563.04 571.365 563.04 567.935C563.04 564.505 565.82 561.725 569.25 561.725C572.68 561.725 575.46 564.505 575.46 567.935Z" stroke="white" stroke-width="3"/>
<path d="M568.733 710.765L568.733 848.419M570.285 849.972H707.94M709.492 848.419L709.492 710.765M570.285 709.212H707.94M575.46 709.73C575.46 713.159 572.68 715.94 569.25 715.94C565.82 715.94 563.04 713.159 563.04 709.73C563.04 706.3 565.82 703.52 569.25 703.52C572.68 703.52 575.46 706.3 575.46 709.73ZM715.185 709.73C715.185 713.159 712.405 715.94 708.975 715.94C705.545 715.94 702.765 713.159 702.765 709.73C702.765 706.3 705.545 703.52 708.975 703.52C712.405 703.52 715.185 706.3 715.185 709.73ZM715.185 849.454C715.185 852.884 712.405 855.664 708.975 855.664C705.545 855.664 702.765 852.884 702.765 849.454C702.765 846.025 705.545 843.244 708.975 843.244C712.405 843.244 715.185 846.025 715.185 849.454ZM575.46 849.454C575.46 852.884 572.68 855.664 569.25 855.664C565.82 855.664 563.04 852.884 563.04 849.454C563.04 846.025 565.82 843.244 569.25 843.244C572.68 843.244 575.46 846.025 575.46 849.454Z" stroke="white" stroke-width="3"/>
<path d="M568.733 570.005L568.733 707.66M570.285 709.212H707.94M709.492 707.66L709.492 570.005M570.285 568.452H707.94M575.46 568.97C575.46 572.399 572.68 575.18 569.25 575.18C565.82 575.18 563.04 572.399 563.04 568.97C563.04 565.54 565.82 562.76 569.25 562.76C572.68 562.76 575.46 565.54 575.46 568.97ZM715.185 568.97C715.185 572.399 712.405 575.18 708.975 575.18C705.545 575.18 702.765 572.399 702.765 568.97C702.765 565.54 705.545 562.76 708.975 562.76C712.405 562.76 715.185 565.54 715.185 568.97ZM715.185 708.695C715.185 712.124 712.405 714.905 708.975 714.905C705.545 714.905 702.765 712.124 702.765 708.695C702.765 705.265 705.545 702.485 708.975 702.485C712.405 702.485 715.185 705.265 715.185 708.695ZM575.46 708.695C575.46 712.124 572.68 714.905 569.25 714.905C565.82 714.905 563.04 712.124 563.04 708.695C563.04 705.265 565.82 702.485 569.25 702.485C572.68 702.485 575.46 705.265 575.46 708.695Z" stroke="white" stroke-width="3"/>
<path d="M709.492 429.245L709.492 566.9M711.045 568.452H848.7M850.252 566.9L850.252 429.245M711.045 427.692H848.7M716.22 428.21C716.22 431.64 713.439 434.42 710.01 434.42C706.58 434.42 703.8 431.64 703.8 428.21C703.8 424.78 706.58 422 710.01 422C713.439 422 716.22 424.78 716.22 428.21ZM855.945 428.21C855.945 431.64 853.164 434.42 849.735 434.42C846.305 434.42 843.525 431.64 843.525 428.21C843.525 424.78 846.305 422 849.735 422C853.164 422 855.945 424.78 855.945 428.21ZM855.945 567.935C855.945 571.365 853.164 574.145 849.735 574.145C846.305 574.145 843.525 571.365 843.525 567.935C843.525 564.505 846.305 561.725 849.735 561.725C853.164 561.725 855.945 564.505 855.945 567.935ZM716.22 567.935C716.22 571.365 713.439 574.145 710.01 574.145C706.58 574.145 703.8 571.365 703.8 567.935C703.8 564.505 706.58 561.725 710.01 561.725C713.439 561.725 716.22 564.505 716.22 567.935Z" stroke="white" stroke-width="3"/>
<path d="M709.492 710.765L709.492 848.419M711.045 849.972H848.7M850.252 848.419L850.252 710.765M711.045 709.212H848.7M716.22 709.73C716.22 713.159 713.439 715.94 710.01 715.94C706.58 715.94 703.8 713.159 703.8 709.73C703.8 706.3 706.58 703.52 710.01 703.52C713.439 703.52 716.22 706.3 716.22 709.73ZM855.945 709.73C855.945 713.159 853.164 715.94 849.735 715.94C846.305 715.94 843.525 713.159 843.525 709.73C843.525 706.3 846.305 703.52 849.735 703.52C853.164 703.52 855.945 706.3 855.945 709.73ZM855.945 849.454C855.945 852.884 853.164 855.664 849.735 855.664C846.305 855.664 843.525 852.884 843.525 849.454C843.525 846.025 846.305 843.244 849.735 843.244C853.164 843.244 855.945 846.025 855.945 849.454ZM716.22 849.454C716.22 852.884 713.439 855.664 710.01 855.664C706.58 855.664 703.8 852.884 703.8 849.454C703.8 846.025 706.58 843.244 710.01 843.244C713.439 843.244 716.22 846.025 716.22 849.454Z" stroke="white" stroke-width="3"/>
<path d="M709.492 570.005L709.492 707.66M711.045 709.212H848.7M850.252 707.66L850.252 570.005M711.045 568.452H848.7M716.22 568.97C716.22 572.399 713.439 575.18 710.01 575.18C706.58 575.18 703.8 572.399 703.8 568.97C703.8 565.54 706.58 562.76 710.01 562.76C713.439 562.76 716.22 565.54 716.22 568.97ZM855.945 568.97C855.945 572.399 853.164 575.18 849.735 575.18C846.305 575.18 843.525 572.399 843.525 568.97C843.525 565.54 846.305 562.76 849.735 562.76C853.164 562.76 855.945 565.54 855.945 568.97ZM855.945 708.695C855.945 712.124 853.164 714.905 849.735 714.905C846.305 714.905 843.525 712.124 843.525 708.695C843.525 705.265 846.305 702.485 849.735 702.485C853.164 702.485 855.945 705.265 855.945 708.695ZM716.22 708.695C716.22 712.124 713.439 714.905 710.01 714.905C706.58 714.905 703.8 712.124 703.8 708.695C703.8 705.265 706.58 702.485 710.01 702.485C713.439 702.485 716.22 705.265 716.22 708.695Z" stroke="white" stroke-width="3"/>
<path d="M850.252 429.245L850.252 566.9M851.805 568.452H989.459M991.012 566.9L991.012 429.245M851.805 427.692H989.459M856.98 428.21C856.98 431.64 854.199 434.42 850.77 434.42C847.34 434.42 844.56 431.64 844.56 428.21C844.56 424.78 847.34 422 850.77 422C854.199 422 856.98 424.78 856.98 428.21ZM996.704 428.21C996.704 431.64 993.924 434.42 990.494 434.42C987.065 434.42 984.284 431.64 984.284 428.21C984.284 424.78 987.065 422 990.494 422C993.924 422 996.704 424.78 996.704 428.21ZM996.704 567.935C996.704 571.365 993.924 574.145 990.494 574.145C987.065 574.145 984.284 571.365 984.284 567.935C984.284 564.505 987.065 561.725 990.494 561.725C993.924 561.725 996.704 564.505 996.704 567.935ZM856.98 567.935C856.98 571.365 854.199 574.145 850.77 574.145C847.34 574.145 844.56 571.365 844.56 567.935C844.56 564.505 847.34 561.725 850.77 561.725C854.199 561.725 856.98 564.505 856.98 567.935Z" stroke="white" stroke-width="3"/>
<path d="M850.252 710.765L850.252 848.419M851.805 849.972H989.459M991.012 848.419L991.012 710.765M851.805 709.212H989.459M856.98 709.73C856.98 713.159 854.199 715.94 850.77 715.94C847.34 715.94 844.56 713.159 844.56 709.73C844.56 706.3 847.34 703.52 850.77 703.52C854.199 703.52 856.98 706.3 856.98 709.73ZM996.704 709.73C996.704 713.159 993.924 715.94 990.494 715.94C987.065 715.94 984.284 713.159 984.284 709.73C984.284 706.3 987.065 703.52 990.494 703.52C993.924 703.52 996.704 706.3 996.704 709.73ZM996.704 849.454C996.704 852.884 993.924 855.664 990.494 855.664C987.065 855.664 984.284 852.884 984.284 849.454C984.284 846.025 987.065 843.244 990.494 843.244C993.924 843.244 996.704 846.025 996.704 849.454ZM856.98 849.454C856.98 852.884 854.199 855.664 850.77 855.664C847.34 855.664 844.56 852.884 844.56 849.454C844.56 846.025 847.34 843.244 850.77 843.244C854.199 843.244 856.98 846.025 856.98 849.454Z" stroke="white" stroke-width="3"/>
<path d="M850.252 570.005L850.252 707.66M851.805 709.212H989.459M991.012 707.66L991.012 570.005M851.805 568.452H989.459M856.98 568.97C856.98 572.399 854.199 575.18 850.77 575.18C847.34 575.18 844.56 572.399 844.56 568.97C844.56 565.54 847.34 562.76 850.77 562.76C854.199 562.76 856.98 565.54 856.98 568.97ZM996.704 568.97C996.704 572.399 993.924 575.18 990.494 575.18C987.065 575.18 984.284 572.399 984.284 568.97C984.284 565.54 987.065 562.76 990.494 562.76C993.924 562.76 996.704 565.54 996.704 568.97ZM996.704 708.695C996.704 712.124 993.924 714.905 990.494 714.905C987.065 714.905 984.284 712.124 984.284 708.695C984.284 705.265 987.065 702.485 990.494 702.485C993.924 702.485 996.704 705.265 996.704 708.695ZM856.98 708.695C856.98 712.124 854.199 714.905 850.77 714.905C847.34 714.905 844.56 712.124 844.56 708.695C844.56 705.265 847.34 702.485 850.77 702.485C854.199 702.485 856.98 705.265 856.98 708.695Z" stroke="white" stroke-width="3"/>
<path d="M991.012 429.245L991.012 566.9M992.564 568.452H1130.22M1131.77 566.9L1131.77 429.245M992.564 427.692H1130.22M997.739 428.21C997.739 431.64 994.959 434.42 991.529 434.42C988.1 434.42 985.319 431.64 985.319 428.21C985.319 424.78 988.1 422 991.529 422C994.959 422 997.739 424.78 997.739 428.21ZM1137.46 428.21C1137.46 431.64 1134.68 434.42 1131.25 434.42C1127.82 434.42 1125.04 431.64 1125.04 428.21C1125.04 424.78 1127.82 422 1131.25 422C1134.68 422 1137.46 424.78 1137.46 428.21ZM1137.46 567.935C1137.46 571.365 1134.68 574.145 1131.25 574.145C1127.82 574.145 1125.04 571.365 1125.04 567.935C1125.04 564.505 1127.82 561.725 1131.25 561.725C1134.68 561.725 1137.46 564.505 1137.46 567.935ZM997.739 567.935C997.739 571.365 994.959 574.145 991.529 574.145C988.1 574.145 985.319 571.365 985.319 567.935C985.319 564.505 988.1 561.725 991.529 561.725C994.959 561.725 997.739 564.505 997.739 567.935Z" stroke="white" stroke-width="3"/>
<path d="M991.012 710.765L991.012 848.419M992.564 849.972H1130.22M1131.77 848.419L1131.77 710.765M992.564 709.212H1130.22M997.739 709.73C997.739 713.159 994.959 715.94 991.529 715.94C988.1 715.94 985.319 713.159 985.319 709.73C985.319 706.3 988.1 703.52 991.529 703.52C994.959 703.52 997.739 706.3 997.739 709.73ZM1137.46 709.73C1137.46 713.159 1134.68 715.94 1131.25 715.94C1127.82 715.94 1125.04 713.159 1125.04 709.73C1125.04 706.3 1127.82 703.52 1131.25 703.52C1134.68 703.52 1137.46 706.3 1137.46 709.73ZM1137.46 849.454C1137.46 852.884 1134.68 855.664 1131.25 855.664C1127.82 855.664 1125.04 852.884 1125.04 849.454C1125.04 846.025 1127.82 843.244 1131.25 843.244C1134.68 843.244 1137.46 846.025 1137.46 849.454ZM997.739 849.454C997.739 852.884 994.959 855.664 991.529 855.664C988.1 855.664 985.319 852.884 985.319 849.454C985.319 846.025 988.1 843.244 991.529 843.244C994.959 843.244 997.739 846.025 997.739 849.454Z" stroke="white" stroke-width="3"/>
<path d="M991.012 570.005L991.012 707.66M992.564 709.212H1130.22M1131.77 707.66L1131.77 570.005M992.564 568.452H1130.22M997.739 568.97C997.739 572.399 994.959 575.18 991.529 575.18C988.1 575.18 985.319 572.399 985.319 568.97C985.319 565.54 988.1 562.76 991.529 562.76C994.959 562.76 997.739 565.54 997.739 568.97ZM1137.46 568.97C1137.46 572.399 1134.68 575.18 1131.25 575.18C1127.82 575.18 1125.04 572.399 1125.04 568.97C1125.04 565.54 1127.82 562.76 1131.25 562.76C1134.68 562.76 1137.46 565.54 1137.46 568.97ZM1137.46 708.695C1137.46 712.124 1134.68 714.905 1131.25 714.905C1127.82 714.905 1125.04 712.124 1125.04 708.695C1125.04 705.265 1127.82 702.485 1131.25 702.485C1134.68 702.485 1137.46 705.265 1137.46 708.695ZM997.739 708.695C997.739 712.124 994.959 714.905 991.529 714.905C988.1 714.905 985.319 712.124 985.319 708.695C985.319 705.265 988.1 702.485 991.529 702.485C994.959 702.485 997.739 705.265 997.739 708.695Z" stroke="white" stroke-width="3"/>
<path d="M1131.77 429.245L1131.77 566.9M1133.32 568.452H1270.98M1272.53 566.9L1272.53 429.245M1133.32 427.692H1270.98M1138.5 428.21C1138.5 431.64 1135.72 434.42 1132.29 434.42C1128.86 434.42 1126.08 431.64 1126.08 428.21C1126.08 424.78 1128.86 422 1132.29 422C1135.72 422 1138.5 424.78 1138.5 428.21ZM1278.22 428.21C1278.22 431.64 1275.44 434.42 1272.01 434.42C1268.58 434.42 1265.8 431.64 1265.8 428.21C1265.8 424.78 1268.58 422 1272.01 422C1275.44 422 1278.22 424.78 1278.22 428.21ZM1278.22 567.935C1278.22 571.365 1275.44 574.145 1272.01 574.145C1268.58 574.145 1265.8 571.365 1265.8 567.935C1265.8 564.505 1268.58 561.725 1272.01 561.725C1275.44 561.725 1278.22 564.505 1278.22 567.935ZM1138.5 567.935C1138.5 571.365 1135.72 574.145 1132.29 574.145C1128.86 574.145 1126.08 571.365 1126.08 567.935C1126.08 564.505 1128.86 561.725 1132.29 561.725C1135.72 561.725 1138.5 564.505 1138.5 567.935Z" stroke="white" stroke-width="3"/>
<path d="M1131.77 710.765L1131.77 848.419M1133.32 849.972H1270.98M1272.53 848.419L1272.53 710.765M1133.32 709.212H1270.98M1138.5 709.73C1138.5 713.159 1135.72 715.94 1132.29 715.94C1128.86 715.94 1126.08 713.159 1126.08 709.73C1126.08 706.3 1128.86 703.52 1132.29 703.52C1135.72 703.52 1138.5 706.3 1138.5 709.73ZM1278.22 709.73C1278.22 713.159 1275.44 715.94 1272.01 715.94C1268.58 715.94 1265.8 713.159 1265.8 709.73C1265.8 706.3 1268.58 703.52 1272.01 703.52C1275.44 703.52 1278.22 706.3 1278.22 709.73ZM1278.22 849.454C1278.22 852.884 1275.44 855.664 1272.01 855.664C1268.58 855.664 1265.8 852.884 1265.8 849.454C1265.8 846.025 1268.58 843.244 1272.01 843.244C1275.44 843.244 1278.22 846.025 1278.22 849.454ZM1138.5 849.454C1138.5 852.884 1135.72 855.664 1132.29 855.664C1128.86 855.664 1126.08 852.884 1126.08 849.454C1126.08 846.025 1128.86 843.244 1132.29 843.244C1135.72 843.244 1138.5 846.025 1138.5 849.454Z" stroke="white" stroke-width="3"/>
<path d="M1131.77 570.005L1131.77 707.66M1133.32 709.212H1270.98M1272.53 707.66L1272.53 570.005M1133.32 568.452H1270.98M1138.5 568.97C1138.5 572.399 1135.72 575.18 1132.29 575.18C1128.86 575.18 1126.08 572.399 1126.08 568.97C1126.08 565.54 1128.86 562.76 1132.29 562.76C1135.72 562.76 1138.5 565.54 1138.5 568.97ZM1278.22 568.97C1278.22 572.399 1275.44 575.18 1272.01 575.18C1268.58 575.18 1265.8 572.399 1265.8 568.97C1265.8 565.54 1268.58 562.76 1272.01 562.76C1275.44 562.76 1278.22 565.54 1278.22 568.97ZM1278.22 708.695C1278.22 712.124 1275.44 714.905 1272.01 714.905C1268.58 714.905 1265.8 712.124 1265.8 708.695C1265.8 705.265 1268.58 702.485 1272.01 702.485C1275.44 702.485 1278.22 705.265 1278.22 708.695ZM1138.5 708.695C1138.5 712.124 1135.72 714.905 1132.29 714.905C1128.86 714.905 1126.08 712.124 1126.08 708.695C1126.08 705.265 1128.86 702.485 1132.29 702.485C1135.72 702.485 1138.5 705.265 1138.5 708.695Z" stroke="white" stroke-width="3"/>
<path d="M1272.53 429.245L1272.53 566.9M1274.08 568.452H1411.74M1413.29 566.9L1413.29 429.245M1274.08 427.692H1411.74M1279.26 428.21C1279.26 431.64 1276.48 434.42 1273.05 434.42C1269.62 434.42 1266.84 431.64 1266.84 428.21C1266.84 424.78 1269.62 422 1273.05 422C1276.48 422 1279.26 424.78 1279.26 428.21ZM1418.98 428.21C1418.98 431.64 1416.2 434.42 1412.77 434.42C1409.34 434.42 1406.56 431.64 1406.56 428.21C1406.56 424.78 1409.34 422 1412.77 422C1416.2 422 1418.98 424.78 1418.98 428.21ZM1418.98 567.935C1418.98 571.365 1416.2 574.145 1412.77 574.145C1409.34 574.145 1406.56 571.365 1406.56 567.935C1406.56 564.505 1409.34 561.725 1412.77 561.725C1416.2 561.725 1418.98 564.505 1418.98 567.935ZM1279.26 567.935C1279.26 571.365 1276.48 574.145 1273.05 574.145C1269.62 574.145 1266.84 571.365 1266.84 567.935C1266.84 564.505 1269.62 561.725 1273.05 561.725C1276.48 561.725 1279.26 564.505 1279.26 567.935Z" stroke="white" stroke-width="3"/>
<path d="M1272.53 710.765L1272.53 848.419M1274.08 849.972H1411.74M1413.29 848.419L1413.29 710.765M1274.08 709.212H1411.74M1279.26 709.73C1279.26 713.159 1276.48 715.94 1273.05 715.94C1269.62 715.94 1266.84 713.159 1266.84 709.73C1266.84 706.3 1269.62 703.52 1273.05 703.52C1276.48 703.52 1279.26 706.3 1279.26 709.73ZM1418.98 709.73C1418.98 713.159 1416.2 715.94 1412.77 715.94C1409.34 715.94 1406.56 713.159 1406.56 709.73C1406.56 706.3 1409.34 703.52 1412.77 703.52C1416.2 703.52 1418.98 706.3 1418.98 709.73ZM1418.98 849.454C1418.98 852.884 1416.2 855.664 1412.77 855.664C1409.34 855.664 1406.56 852.884 1406.56 849.454C1406.56 846.025 1409.34 843.244 1412.77 843.244C1416.2 843.244 1418.98 846.025 1418.98 849.454ZM1279.26 849.454C1279.26 852.884 1276.48 855.664 1273.05 855.664C1269.62 855.664 1266.84 852.884 1266.84 849.454C1266.84 846.025 1269.62 843.244 1273.05 843.244C1276.48 843.244 1279.26 846.025 1279.26 849.454Z" stroke="white" stroke-width="3"/>
<path d="M1272.53 570.005L1272.53 707.66M1274.08 709.212H1411.74M1413.29 707.66L1413.29 570.005M1274.08 568.452H1411.74M1279.26 568.97C1279.26 572.399 1276.48 575.18 1273.05 575.18C1269.62 575.18 1266.84 572.399 1266.84 568.97C1266.84 565.54 1269.62 562.76 1273.05 562.76C1276.48 562.76 1279.26 565.54 1279.26 568.97ZM1418.98 568.97C1418.98 572.399 1416.2 575.18 1412.77 575.18C1409.34 575.18 1406.56 572.399 1406.56 568.97C1406.56 565.54 1409.34 562.76 1412.77 562.76C1416.2 562.76 1418.98 565.54 1418.98 568.97ZM1418.98 708.695C1418.98 712.124 1416.2 714.905 1412.77 714.905C1409.34 714.905 1406.56 712.124 1406.56 708.695C1406.56 705.265 1409.34 702.485 1412.77 702.485C1416.2 702.485 1418.98 705.265 1418.98 708.695ZM1279.26 708.695C1279.26 712.124 1276.48 714.905 1273.05 714.905C1269.62 714.905 1266.84 712.124 1266.84 708.695C1266.84 705.265 1269.62 702.485 1273.05 702.485C1276.48 702.485 1279.26 705.265 1279.26 708.695Z" stroke="white" stroke-width="3"/>
<path d="M1413.29 429.245L1413.29 566.9M1414.84 568.452H1552.5M1554.05 566.9L1554.05 429.245M1414.84 427.692H1552.5M1420.02 428.21C1420.02 431.64 1417.24 434.42 1413.81 434.42C1410.38 434.42 1407.6 431.64 1407.6 428.21C1407.6 424.78 1410.38 422 1413.81 422C1417.24 422 1420.02 424.78 1420.02 428.21ZM1559.74 428.21C1559.74 431.64 1556.96 434.42 1553.53 434.42C1550.1 434.42 1547.32 431.64 1547.32 428.21C1547.32 424.78 1550.1 422 1553.53 422C1556.96 422 1559.74 424.78 1559.74 428.21ZM1559.74 567.935C1559.74 571.365 1556.96 574.145 1553.53 574.145C1550.1 574.145 1547.32 571.365 1547.32 567.935C1547.32 564.505 1550.1 561.725 1553.53 561.725C1556.96 561.725 1559.74 564.505 1559.74 567.935ZM1420.02 567.935C1420.02 571.365 1417.24 574.145 1413.81 574.145C1410.38 574.145 1407.6 571.365 1407.6 567.935C1407.6 564.505 1410.38 561.725 1413.81 561.725C1417.24 561.725 1420.02 564.505 1420.02 567.935Z" stroke="white" stroke-width="3"/>
<path d="M1413.29 710.765L1413.29 848.419M1414.84 849.972H1552.5M1554.05 848.419L1554.05 710.765M1414.84 709.212H1552.5M1420.02 709.73C1420.02 713.159 1417.24 715.94 1413.81 715.94C1410.38 715.94 1407.6 713.159 1407.6 709.73C1407.6 706.3 1410.38 703.52 1413.81 703.52C1417.24 703.52 1420.02 706.3 1420.02 709.73ZM1559.74 709.73C1559.74 713.159 1556.96 715.94 1553.53 715.94C1550.1 715.94 1547.32 713.159 1547.32 709.73C1547.32 706.3 1550.1 703.52 1553.53 703.52C1556.96 703.52 1559.74 706.3 1559.74 709.73ZM1559.74 849.454C1559.74 852.884 1556.96 855.664 1553.53 855.664C1550.1 855.664 1547.32 852.884 1547.32 849.454C1547.32 846.025 1550.1 843.244 1553.53 843.244C1556.96 843.244 1559.74 846.025 1559.74 849.454ZM1420.02 849.454C1420.02 852.884 1417.24 855.664 1413.81 855.664C1410.38 855.664 1407.6 852.884 1407.6 849.454C1407.6 846.025 1410.38 843.244 1413.81 843.244C1417.24 843.244 1420.02 846.025 1420.02 849.454Z" stroke="white" stroke-width="3"/>
<path d="M1413.29 570.005L1413.29 707.66M1414.84 709.212H1552.5M1554.05 707.66L1554.05 570.005M1414.84 568.452H1552.5M1420.02 568.97C1420.02 572.399 1417.24 575.18 1413.81 575.18C1410.38 575.18 1407.6 572.399 1407.6 568.97C1407.6 565.54 1410.38 562.76 1413.81 562.76C1417.24 562.76 1420.02 565.54 1420.02 568.97ZM1559.74 568.97C1559.74 572.399 1556.96 575.18 1553.53 575.18C1550.1 575.18 1547.32 572.399 1547.32 568.97C1547.32 565.54 1550.1 562.76 1553.53 562.76C1556.96 562.76 1559.74 565.54 1559.74 568.97ZM1559.74 708.695C1559.74 712.124 1556.96 714.905 1553.53 714.905C1550.1 714.905 1547.32 712.124 1547.32 708.695C1547.32 705.265 1550.1 702.485 1553.53 702.485C1556.96 702.485 1559.74 705.265 1559.74 708.695ZM1420.02 708.695C1420.02 712.124 1417.24 714.905 1413.81 714.905C1410.38 714.905 1407.6 712.124 1407.6 708.695C1407.6 705.265 1410.38 702.485 1413.81 702.485C1417.24 702.485 1420.02 705.265 1420.02 708.695Z" stroke="white" stroke-width="3"/>
<path d="M1554.05 429.245L1554.05 566.9M1555.6 568.452H1693.26M1694.81 566.9L1694.81 429.245M1555.6 427.692H1693.26M1560.78 428.21C1560.78 431.64 1558 434.42 1554.57 434.42C1551.14 434.42 1548.36 431.64 1548.36 428.21C1548.36 424.78 1551.14 422 1554.57 422C1558 422 1560.78 424.78 1560.78 428.21ZM1700.5 428.21C1700.5 431.64 1697.72 434.42 1694.29 434.42C1690.86 434.42 1688.08 431.64 1688.08 428.21C1688.08 424.78 1690.86 422 1694.29 422C1697.72 422 1700.5 424.78 1700.5 428.21ZM1700.5 567.935C1700.5 571.365 1697.72 574.145 1694.29 574.145C1690.86 574.145 1688.08 571.365 1688.08 567.935C1688.08 564.505 1690.86 561.725 1694.29 561.725C1697.72 561.725 1700.5 564.505 1700.5 567.935ZM1560.78 567.935C1560.78 571.365 1558 574.145 1554.57 574.145C1551.14 574.145 1548.36 571.365 1548.36 567.935C1548.36 564.505 1551.14 561.725 1554.57 561.725C1558 561.725 1560.78 564.505 1560.78 567.935Z" stroke="white" stroke-width="3"/>
<path d="M1554.05 710.765L1554.05 848.419M1555.6 849.972H1693.26M1694.81 848.419L1694.81 710.765M1555.6 709.212H1693.26M1560.78 709.73C1560.78 713.159 1558 715.94 1554.57 715.94C1551.14 715.94 1548.36 713.159 1548.36 709.73C1548.36 706.3 1551.14 703.52 1554.57 703.52C1558 703.52 1560.78 706.3 1560.78 709.73ZM1700.5 709.73C1700.5 713.159 1697.72 715.94 1694.29 715.94C1690.86 715.94 1688.08 713.159 1688.08 709.73C1688.08 706.3 1690.86 703.52 1694.29 703.52C1697.72 703.52 1700.5 706.3 1700.5 709.73ZM1700.5 849.454C1700.5 852.884 1697.72 855.664 1694.29 855.664C1690.86 855.664 1688.08 852.884 1688.08 849.454C1688.08 846.025 1690.86 843.244 1694.29 843.244C1697.72 843.244 1700.5 846.025 1700.5 849.454ZM1560.78 849.454C1560.78 852.884 1558 855.664 1554.57 855.664C1551.14 855.664 1548.36 852.884 1548.36 849.454C1548.36 846.025 1551.14 843.244 1554.57 843.244C1558 843.244 1560.78 846.025 1560.78 849.454Z" stroke="white" stroke-width="3"/>
<path d="M1554.05 570.005L1554.05 707.66M1555.6 709.212H1693.26M1694.81 707.66L1694.81 570.005M1555.6 568.452H1693.26M1560.78 568.97C1560.78 572.399 1558 575.18 1554.57 575.18C1551.14 575.18 1548.36 572.399 1548.36 568.97C1548.36 565.54 1551.14 562.76 1554.57 562.76C1558 562.76 1560.78 565.54 1560.78 568.97ZM1700.5 568.97C1700.5 572.399 1697.72 575.18 1694.29 575.18C1690.86 575.18 1688.08 572.399 1688.08 568.97C1688.08 565.54 1690.86 562.76 1694.29 562.76C1697.72 562.76 1700.5 565.54 1700.5 568.97ZM1700.5 708.695C1700.5 712.124 1697.72 714.905 1694.29 714.905C1690.86 714.905 1688.08 712.124 1688.08 708.695C1688.08 705.265 1690.86 702.485 1694.29 702.485C1697.72 702.485 1700.5 705.265 1700.5 708.695ZM1560.78 708.695C1560.78 712.124 1558 714.905 1554.57 714.905C1551.14 714.905 1548.36 712.124 1548.36 708.695C1548.36 705.265 1551.14 702.485 1554.57 702.485C1558 702.485 1560.78 705.265 1560.78 708.695Z" stroke="white" stroke-width="3"/>
<path d="M1694.81 429.245L1694.81 566.9M1696.36 568.452H1834.02M1835.57 566.9L1835.57 429.245M1696.36 427.692H1834.02M1701.54 428.21C1701.54 431.64 1698.76 434.42 1695.33 434.42C1691.9 434.42 1689.12 431.64 1689.12 428.21C1689.12 424.78 1691.9 422 1695.33 422C1698.76 422 1701.54 424.78 1701.54 428.21ZM1841.26 428.21C1841.26 431.64 1838.48 434.42 1835.05 434.42C1831.62 434.42 1828.84 431.64 1828.84 428.21C1828.84 424.78 1831.62 422 1835.05 422C1838.48 422 1841.26 424.78 1841.26 428.21ZM1841.26 567.935C1841.26 571.365 1838.48 574.145 1835.05 574.145C1831.62 574.145 1828.84 571.365 1828.84 567.935C1828.84 564.505 1831.62 561.725 1835.05 561.725C1838.48 561.725 1841.26 564.505 1841.26 567.935ZM1701.54 567.935C1701.54 571.365 1698.76 574.145 1695.33 574.145C1691.9 574.145 1689.12 571.365 1689.12 567.935C1689.12 564.505 1691.9 561.725 1695.33 561.725C1698.76 561.725 1701.54 564.505 1701.54 567.935Z" stroke="white" stroke-width="3"/>
<path d="M1694.81 710.765L1694.81 848.419M1696.36 849.972H1834.02M1835.57 848.419L1835.57 710.765M1696.36 709.212H1834.02M1701.54 709.73C1701.54 713.159 1698.76 715.94 1695.33 715.94C1691.9 715.94 1689.12 713.159 1689.12 709.73C1689.12 706.3 1691.9 703.52 1695.33 703.52C1698.76 703.52 1701.54 706.3 1701.54 709.73ZM1841.26 709.73C1841.26 713.159 1838.48 715.94 1835.05 715.94C1831.62 715.94 1828.84 713.159 1828.84 709.73C1828.84 706.3 1831.62 703.52 1835.05 703.52C1838.48 703.52 1841.26 706.3 1841.26 709.73ZM1841.26 849.454C1841.26 852.884 1838.48 855.664 1835.05 855.664C1831.62 855.664 1828.84 852.884 1828.84 849.454C1828.84 846.025 1831.62 843.244 1835.05 843.244C1838.48 843.244 1841.26 846.025 1841.26 849.454ZM1701.54 849.454C1701.54 852.884 1698.76 855.664 1695.33 855.664C1691.9 855.664 1689.12 852.884 1689.12 849.454C1689.12 846.025 1691.9 843.244 1695.33 843.244C1698.76 843.244 1701.54 846.025 1701.54 849.454Z" stroke="white" stroke-width="3"/>
<path d="M1694.81 570.005L1694.81 707.66M1696.36 709.212H1834.02M1835.57 707.66L1835.57 570.005M1696.36 568.452H1834.02M1701.54 568.97C1701.54 572.399 1698.76 575.18 1695.33 575.18C1691.9 575.18 1689.12 572.399 1689.12 568.97C1689.12 565.54 1691.9 562.76 1695.33 562.76C1698.76 562.76 1701.54 565.54 1701.54 568.97ZM1841.26 568.97C1841.26 572.399 1838.48 575.18 1835.05 575.18C1831.62 575.18 1828.84 572.399 1828.84 568.97C1828.84 565.54 1831.62 562.76 1835.05 562.76C1838.48 562.76 1841.26 565.54 1841.26 568.97ZM1841.26 708.695C1841.26 712.124 1838.48 714.905 1835.05 714.905C1831.62 714.905 1828.84 712.124 1828.84 708.695C1828.84 705.265 1831.62 702.485 1835.05 702.485C1838.48 702.485 1841.26 705.265 1841.26 708.695ZM1701.54 708.695C1701.54 712.124 1698.76 714.905 1695.33 714.905C1691.9 714.905 1689.12 712.124 1689.12 708.695C1689.12 705.265 1691.9 702.485 1695.33 702.485C1698.76 702.485 1701.54 705.265 1701.54 708.695Z" stroke="white" stroke-width="3"/>
<path d="M1554.05 429.245L1554.05 566.9M1555.6 568.452H1693.26M1694.81 566.9L1694.81 429.245M1555.6 427.692H1693.26M1560.78 428.21C1560.78 431.64 1558 434.42 1554.57 434.42C1551.14 434.42 1548.36 431.64 1548.36 428.21C1548.36 424.78 1551.14 422 1554.57 422C1558 422 1560.78 424.78 1560.78 428.21ZM1700.5 428.21C1700.5 431.64 1697.72 434.42 1694.29 434.42C1690.86 434.42 1688.08 431.64 1688.08 428.21C1688.08 424.78 1690.86 422 1694.29 422C1697.72 422 1700.5 424.78 1700.5 428.21ZM1700.5 567.935C1700.5 571.365 1697.72 574.145 1694.29 574.145C1690.86 574.145 1688.08 571.365 1688.08 567.935C1688.08 564.505 1690.86 561.725 1694.29 561.725C1697.72 561.725 1700.5 564.505 1700.5 567.935ZM1560.78 567.935C1560.78 571.365 1558 574.145 1554.57 574.145C1551.14 574.145 1548.36 571.365 1548.36 567.935C1548.36 564.505 1551.14 561.725 1554.57 561.725C1558 561.725 1560.78 564.505 1560.78 567.935Z" stroke="white" stroke-width="3"/>
<path d="M1554.05 710.765L1554.05 848.419M1555.6 849.972H1693.26M1694.81 848.419L1694.81 710.765M1555.6 709.212H1693.26M1560.78 709.73C1560.78 713.159 1558 715.94 1554.57 715.94C1551.14 715.94 1548.36 713.159 1548.36 709.73C1548.36 706.3 1551.14 703.52 1554.57 703.52C1558 703.52 1560.78 706.3 1560.78 709.73ZM1700.5 709.73C1700.5 713.159 1697.72 715.94 1694.29 715.94C1690.86 715.94 1688.08 713.159 1688.08 709.73C1688.08 706.3 1690.86 703.52 1694.29 703.52C1697.72 703.52 1700.5 706.3 1700.5 709.73ZM1700.5 849.454C1700.5 852.884 1697.72 855.664 1694.29 855.664C1690.86 855.664 1688.08 852.884 1688.08 849.454C1688.08 846.025 1690.86 843.244 1694.29 843.244C1697.72 843.244 1700.5 846.025 1700.5 849.454ZM1560.78 849.454C1560.78 852.884 1558 855.664 1554.57 855.664C1551.14 855.664 1548.36 852.884 1548.36 849.454C1548.36 846.025 1551.14 843.244 1554.57 843.244C1558 843.244 1560.78 846.025 1560.78 849.454Z" stroke="white" stroke-width="3"/>
<path d="M1554.05 570.005L1554.05 707.66M1555.6 709.212H1693.26M1694.81 707.66L1694.81 570.005M1555.6 568.452H1693.26M1560.78 568.97C1560.78 572.399 1558 575.18 1554.57 575.18C1551.14 575.18 1548.36 572.399 1548.36 568.97C1548.36 565.54 1551.14 562.76 1554.57 562.76C1558 562.76 1560.78 565.54 1560.78 568.97ZM1700.5 568.97C1700.5 572.399 1697.72 575.18 1694.29 575.18C1690.86 575.18 1688.08 572.399 1688.08 568.97C1688.08 565.54 1690.86 562.76 1694.29 562.76C1697.72 562.76 1700.5 565.54 1700.5 568.97ZM1700.5 708.695C1700.5 712.124 1697.72 714.905 1694.29 714.905C1690.86 714.905 1688.08 712.124 1688.08 708.695C1688.08 705.265 1690.86 702.485 1694.29 702.485C1697.72 702.485 1700.5 705.265 1700.5 708.695ZM1560.78 708.695C1560.78 712.124 1558 714.905 1554.57 714.905C1551.14 714.905 1548.36 712.124 1548.36 708.695C1548.36 705.265 1551.14 702.485 1554.57 702.485C1558 702.485 1560.78 705.265 1560.78 708.695Z" stroke="white" stroke-width="3"/>
<path d="M1694.81 429.245L1694.81 566.9M1696.36 568.452H1834.02M1835.57 566.9L1835.57 429.245M1696.36 427.692H1834.02M1701.54 428.21C1701.54 431.64 1698.76 434.42 1695.33 434.42C1691.9 434.42 1689.12 431.64 1689.12 428.21C1689.12 424.78 1691.9 422 1695.33 422C1698.76 422 1701.54 424.78 1701.54 428.21ZM1841.26 428.21C1841.26 431.64 1838.48 434.42 1835.05 434.42C1831.62 434.42 1828.84 431.64 1828.84 428.21C1828.84 424.78 1831.62 422 1835.05 422C1838.48 422 1841.26 424.78 1841.26 428.21ZM1841.26 567.935C1841.26 571.365 1838.48 574.145 1835.05 574.145C1831.62 574.145 1828.84 571.365 1828.84 567.935C1828.84 564.505 1831.62 561.725 1835.05 561.725C1838.48 561.725 1841.26 564.505 1841.26 567.935ZM1701.54 567.935C1701.54 571.365 1698.76 574.145 1695.33 574.145C1691.9 574.145 1689.12 571.365 1689.12 567.935C1689.12 564.505 1691.9 561.725 1695.33 561.725C1698.76 561.725 1701.54 564.505 1701.54 567.935Z" stroke="white" stroke-width="3"/>
<path d="M1694.81 710.765L1694.81 848.419M1696.36 849.972H1834.02M1835.57 848.419L1835.57 710.765M1696.36 709.212H1834.02M1701.54 709.73C1701.54 713.159 1698.76 715.94 1695.33 715.94C1691.9 715.94 1689.12 713.159 1689.12 709.73C1689.12 706.3 1691.9 703.52 1695.33 703.52C1698.76 703.52 1701.54 706.3 1701.54 709.73ZM1841.26 709.73C1841.26 713.159 1838.48 715.94 1835.05 715.94C1831.62 715.94 1828.84 713.159 1828.84 709.73C1828.84 706.3 1831.62 703.52 1835.05 703.52C1838.48 703.52 1841.26 706.3 1841.26 709.73ZM1841.26 849.454C1841.26 852.884 1838.48 855.664 1835.05 855.664C1831.62 855.664 1828.84 852.884 1828.84 849.454C1828.84 846.025 1831.62 843.244 1835.05 843.244C1838.48 843.244 1841.26 846.025 1841.26 849.454ZM1701.54 849.454C1701.54 852.884 1698.76 855.664 1695.33 855.664C1691.9 855.664 1689.12 852.884 1689.12 849.454C1689.12 846.025 1691.9 843.244 1695.33 843.244C1698.76 843.244 1701.54 846.025 1701.54 849.454Z" stroke="white" stroke-width="3"/>
<path d="M1694.81 570.005L1694.81 707.66M1696.36 709.212H1834.02M1835.57 707.66L1835.57 570.005M1696.36 568.452H1834.02M1701.54 568.97C1701.54 572.399 1698.76 575.18 1695.33 575.18C1691.9 575.18 1689.12 572.399 1689.12 568.97C1689.12 565.54 1691.9 562.76 1695.33 562.76C1698.76 562.76 1701.54 565.54 1701.54 568.97ZM1841.26 568.97C1841.26 572.399 1838.48 575.18 1835.05 575.18C1831.62 575.18 1828.84 572.399 1828.84 568.97C1828.84 565.54 1831.62 562.76 1835.05 562.76C1838.48 562.76 1841.26 565.54 1841.26 568.97ZM1841.26 708.695C1841.26 712.124 1838.48 714.905 1835.05 714.905C1831.62 714.905 1828.84 712.124 1828.84 708.695C1828.84 705.265 1831.62 702.485 1835.05 702.485C1838.48 702.485 1841.26 705.265 1841.26 708.695ZM1701.54 708.695C1701.54 712.124 1698.76 714.905 1695.33 714.905C1691.9 714.905 1689.12 712.124 1689.12 708.695C1689.12 705.265 1691.9 702.485 1695.33 702.485C1698.76 702.485 1701.54 705.265 1701.54 708.695Z" stroke="white" stroke-width="3"/>
<path d="M1835.57 429.245L1835.57 566.9M1837.12 568.452H1974.78M1976.33 566.9L1976.33 429.245M1837.12 427.692H1974.78M1842.3 428.21C1842.3 431.64 1839.52 434.42 1836.09 434.42C1832.66 434.42 1829.88 431.64 1829.88 428.21C1829.88 424.78 1832.66 422 1836.09 422C1839.52 422 1842.3 424.78 1842.3 428.21ZM1982.02 428.21C1982.02 431.64 1979.24 434.42 1975.81 434.42C1972.38 434.42 1969.6 431.64 1969.6 428.21C1969.6 424.78 1972.38 422 1975.81 422C1979.24 422 1982.02 424.78 1982.02 428.21ZM1982.02 567.935C1982.02 571.365 1979.24 574.145 1975.81 574.145C1972.38 574.145 1969.6 571.365 1969.6 567.935C1969.6 564.505 1972.38 561.725 1975.81 561.725C1979.24 561.725 1982.02 564.505 1982.02 567.935ZM1842.3 567.935C1842.3 571.365 1839.52 574.145 1836.09 574.145C1832.66 574.145 1829.88 571.365 1829.88 567.935C1829.88 564.505 1832.66 561.725 1836.09 561.725C1839.52 561.725 1842.3 564.505 1842.3 567.935Z" stroke="white" stroke-width="3"/>
<path d="M1835.57 710.765L1835.57 848.419M1837.12 849.972H1974.78M1976.33 848.419L1976.33 710.765M1837.12 709.212H1974.78M1842.3 709.73C1842.3 713.159 1839.52 715.94 1836.09 715.94C1832.66 715.94 1829.88 713.159 1829.88 709.73C1829.88 706.3 1832.66 703.52 1836.09 703.52C1839.52 703.52 1842.3 706.3 1842.3 709.73ZM1982.02 709.73C1982.02 713.159 1979.24 715.94 1975.81 715.94C1972.38 715.94 1969.6 713.159 1969.6 709.73C1969.6 706.3 1972.38 703.52 1975.81 703.52C1979.24 703.52 1982.02 706.3 1982.02 709.73ZM1982.02 849.454C1982.02 852.884 1979.24 855.664 1975.81 855.664C1972.38 855.664 1969.6 852.884 1969.6 849.454C1969.6 846.025 1972.38 843.244 1975.81 843.244C1979.24 843.244 1982.02 846.025 1982.02 849.454ZM1842.3 849.454C1842.3 852.884 1839.52 855.664 1836.09 855.664C1832.66 855.664 1829.88 852.884 1829.88 849.454C1829.88 846.025 1832.66 843.244 1836.09 843.244C1839.52 843.244 1842.3 846.025 1842.3 849.454Z" stroke="white" stroke-width="3"/>
<path d="M1835.57 570.005L1835.57 707.66M1837.12 709.212H1974.78M1976.33 707.66L1976.33 570.005M1837.12 568.452H1974.78M1842.3 568.97C1842.3 572.399 1839.52 575.18 1836.09 575.18C1832.66 575.18 1829.88 572.399 1829.88 568.97C1829.88 565.54 1832.66 562.76 1836.09 562.76C1839.52 562.76 1842.3 565.54 1842.3 568.97ZM1982.02 568.97C1982.02 572.399 1979.24 575.18 1975.81 575.18C1972.38 575.18 1969.6 572.399 1969.6 568.97C1969.6 565.54 1972.38 562.76 1975.81 562.76C1979.24 562.76 1982.02 565.54 1982.02 568.97ZM1982.02 708.695C1982.02 712.124 1979.24 714.905 1975.81 714.905C1972.38 714.905 1969.6 712.124 1969.6 708.695C1969.6 705.265 1972.38 702.485 1975.81 702.485C1979.24 702.485 1982.02 705.265 1982.02 708.695ZM1842.3 708.695C1842.3 712.124 1839.52 714.905 1836.09 714.905C1832.66 714.905 1829.88 712.124 1829.88 708.695C1829.88 705.265 1832.66 702.485 1836.09 702.485C1839.52 702.485 1842.3 705.265 1842.3 708.695Z" stroke="white" stroke-width="3"/>
<path d="M1835.57 429.245L1835.57 566.9M1837.12 568.452H1974.78M1976.33 566.9L1976.33 429.245M1837.12 427.692H1974.78M1842.3 428.21C1842.3 431.64 1839.52 434.42 1836.09 434.42C1832.66 434.42 1829.88 431.64 1829.88 428.21C1829.88 424.78 1832.66 422 1836.09 422C1839.52 422 1842.3 424.78 1842.3 428.21ZM1982.02 428.21C1982.02 431.64 1979.24 434.42 1975.81 434.42C1972.38 434.42 1969.6 431.64 1969.6 428.21C1969.6 424.78 1972.38 422 1975.81 422C1979.24 422 1982.02 424.78 1982.02 428.21ZM1982.02 567.935C1982.02 571.365 1979.24 574.145 1975.81 574.145C1972.38 574.145 1969.6 571.365 1969.6 567.935C1969.6 564.505 1972.38 561.725 1975.81 561.725C1979.24 561.725 1982.02 564.505 1982.02 567.935ZM1842.3 567.935C1842.3 571.365 1839.52 574.145 1836.09 574.145C1832.66 574.145 1829.88 571.365 1829.88 567.935C1829.88 564.505 1832.66 561.725 1836.09 561.725C1839.52 561.725 1842.3 564.505 1842.3 567.935Z" stroke="white" stroke-width="3"/>
<path d="M1835.57 710.765L1835.57 848.419M1837.12 849.972H1974.78M1976.33 848.419L1976.33 710.765M1837.12 709.212H1974.78M1842.3 709.73C1842.3 713.159 1839.52 715.94 1836.09 715.94C1832.66 715.94 1829.88 713.159 1829.88 709.73C1829.88 706.3 1832.66 703.52 1836.09 703.52C1839.52 703.52 1842.3 706.3 1842.3 709.73ZM1982.02 709.73C1982.02 713.159 1979.24 715.94 1975.81 715.94C1972.38 715.94 1969.6 713.159 1969.6 709.73C1969.6 706.3 1972.38 703.52 1975.81 703.52C1979.24 703.52 1982.02 706.3 1982.02 709.73ZM1982.02 849.454C1982.02 852.884 1979.24 855.664 1975.81 855.664C1972.38 855.664 1969.6 852.884 1969.6 849.454C1969.6 846.025 1972.38 843.244 1975.81 843.244C1979.24 843.244 1982.02 846.025 1982.02 849.454ZM1842.3 849.454C1842.3 852.884 1839.52 855.664 1836.09 855.664C1832.66 855.664 1829.88 852.884 1829.88 849.454C1829.88 846.025 1832.66 843.244 1836.09 843.244C1839.52 843.244 1842.3 846.025 1842.3 849.454Z" stroke="white" stroke-width="3"/>
<path d="M1835.57 570.005L1835.57 707.66M1837.12 709.212H1974.78M1976.33 707.66L1976.33 570.005M1837.12 568.452H1974.78M1842.3 568.97C1842.3 572.399 1839.52 575.18 1836.09 575.18C1832.66 575.18 1829.88 572.399 1829.88 568.97C1829.88 565.54 1832.66 562.76 1836.09 562.76C1839.52 562.76 1842.3 565.54 1842.3 568.97ZM1982.02 568.97C1982.02 572.399 1979.24 575.18 1975.81 575.18C1972.38 575.18 1969.6 572.399 1969.6 568.97C1969.6 565.54 1972.38 562.76 1975.81 562.76C1979.24 562.76 1982.02 565.54 1982.02 568.97ZM1982.02 708.695C1982.02 712.124 1979.24 714.905 1975.81 714.905C1972.38 714.905 1969.6 712.124 1969.6 708.695C1969.6 705.265 1972.38 702.485 1975.81 702.485C1979.24 702.485 1982.02 705.265 1982.02 708.695ZM1842.3 708.695C1842.3 712.124 1839.52 714.905 1836.09 714.905C1832.66 714.905 1829.88 712.124 1829.88 708.695C1829.88 705.265 1832.66 702.485 1836.09 702.485C1839.52 702.485 1842.3 705.265 1842.3 708.695Z" stroke="white" stroke-width="3"/>
<path d="M5.6925 7.24499L5.6925 144.9M7.245 146.452H144.9M146.452 144.9L146.452 7.24499M7.245 5.6925H144.9M12.42 6.21C12.42 9.63968 9.63968 12.42 6.21 12.42C2.78031 12.42 0 9.63968 0 6.21C0 2.78031 2.78031 0 6.21 0C9.63968 0 12.42 2.78031 12.42 6.21ZM152.145 6.21C152.145 9.63968 149.365 12.42 145.935 12.42C142.505 12.42 139.725 9.63968 139.725 6.21C139.725 2.78031 142.505 0 145.935 0C149.365 0 152.145 2.78031 152.145 6.21ZM152.145 145.935C152.145 149.365 149.365 152.145 145.935 152.145C142.505 152.145 139.725 149.365 139.725 145.935C139.725 142.505 142.505 139.725 145.935 139.725C149.365 139.725 152.145 142.505 152.145 145.935ZM12.42 145.935C12.42 149.365 9.63968 152.145 6.21 152.145C2.78031 152.145 0 149.365 0 145.935C0 142.505 2.78031 139.725 6.21 139.725C9.63968 139.725 12.42 142.505 12.42 145.935Z" stroke="white" stroke-width="3"/>
<path d="M5.6925 288.765L5.6925 426.419M7.245 427.972H144.9M146.452 426.419L146.452 288.765M7.245 287.212H144.9M12.42 287.73C12.42 291.159 9.63968 293.94 6.21 293.94C2.78031 293.94 0 291.159 0 287.73C0 284.3 2.78031 281.52 6.21 281.52C9.63968 281.52 12.42 284.3 12.42 287.73ZM152.145 287.73C152.145 291.159 149.365 293.94 145.935 293.94C142.505 293.94 139.725 291.159 139.725 287.73C139.725 284.3 142.505 281.52 145.935 281.52C149.365 281.52 152.145 284.3 152.145 287.73ZM152.145 427.454C152.145 430.884 149.365 433.664 145.935 433.664C142.505 433.664 139.725 430.884 139.725 427.454C139.725 424.025 142.505 421.244 145.935 421.244C149.365 421.244 152.145 424.025 152.145 427.454ZM12.42 427.454C12.42 430.884 9.63968 433.664 6.21 433.664C2.78031 433.664 0 430.884 0 427.454C0 424.025 2.78031 421.244 6.21 421.244C9.63968 421.244 12.42 424.025 12.42 427.454Z" stroke="white" stroke-width="3"/>
<path d="M5.6925 148.005L5.6925 285.66M7.245 287.212H144.9M146.452 285.66L146.452 148.005M7.245 146.452H144.9M12.42 146.97C12.42 150.399 9.63968 153.18 6.21 153.18C2.78031 153.18 0 150.399 0 146.97C0 143.54 2.78031 140.76 6.21 140.76C9.63968 140.76 12.42 143.54 12.42 146.97ZM152.145 146.97C152.145 150.399 149.365 153.18 145.935 153.18C142.505 153.18 139.725 150.399 139.725 146.97C139.725 143.54 142.505 140.76 145.935 140.76C149.365 140.76 152.145 143.54 152.145 146.97ZM152.145 286.695C152.145 290.124 149.365 292.905 145.935 292.905C142.505 292.905 139.725 290.124 139.725 286.695C139.725 283.265 142.505 280.485 145.935 280.485C149.365 280.485 152.145 283.265 152.145 286.695ZM12.42 286.695C12.42 290.124 9.63968 292.905 6.21 292.905C2.78031 292.905 0 290.124 0 286.695C0 283.265 2.78031 280.485 6.21 280.485C9.63968 280.485 12.42 283.265 12.42 286.695Z" stroke="white" stroke-width="3"/>
<path d="M146.452 7.24499L146.452 144.9M148.005 146.452H285.66M287.212 144.9L287.212 7.24499M148.005 5.6925H285.66M153.18 6.21C153.18 9.63968 150.399 12.42 146.97 12.42C143.54 12.42 140.76 9.63968 140.76 6.21C140.76 2.78031 143.54 0 146.97 0C150.399 0 153.18 2.78031 153.18 6.21ZM292.905 6.21C292.905 9.63968 290.124 12.42 286.695 12.42C283.265 12.42 280.485 9.63968 280.485 6.21C280.485 2.78031 283.265 0 286.695 0C290.124 0 292.905 2.78031 292.905 6.21ZM292.905 145.935C292.905 149.365 290.124 152.145 286.695 152.145C283.265 152.145 280.485 149.365 280.485 145.935C280.485 142.505 283.265 139.725 286.695 139.725C290.124 139.725 292.905 142.505 292.905 145.935ZM153.18 145.935C153.18 149.365 150.399 152.145 146.97 152.145C143.54 152.145 140.76 149.365 140.76 145.935C140.76 142.505 143.54 139.725 146.97 139.725C150.399 139.725 153.18 142.505 153.18 145.935Z" stroke="white" stroke-width="3"/>
<path d="M146.452 288.765L146.452 426.419M148.005 427.972H285.66M287.212 426.419L287.212 288.765M148.005 287.212H285.66M153.18 287.73C153.18 291.159 150.399 293.94 146.97 293.94C143.54 293.94 140.76 291.159 140.76 287.73C140.76 284.3 143.54 281.52 146.97 281.52C150.399 281.52 153.18 284.3 153.18 287.73ZM292.905 287.73C292.905 291.159 290.124 293.94 286.695 293.94C283.265 293.94 280.485 291.159 280.485 287.73C280.485 284.3 283.265 281.52 286.695 281.52C290.124 281.52 292.905 284.3 292.905 287.73ZM292.905 427.454C292.905 430.884 290.124 433.664 286.695 433.664C283.265 433.664 280.485 430.884 280.485 427.454C280.485 424.025 283.265 421.244 286.695 421.244C290.124 421.244 292.905 424.025 292.905 427.454ZM153.18 427.454C153.18 430.884 150.399 433.664 146.97 433.664C143.54 433.664 140.76 430.884 140.76 427.454C140.76 424.025 143.54 421.244 146.97 421.244C150.399 421.244 153.18 424.025 153.18 427.454Z" stroke="white" stroke-width="3"/>
<path d="M146.452 148.005L146.452 285.66M148.005 287.212H285.66M287.212 285.66L287.212 148.005M148.005 146.452H285.66M153.18 146.97C153.18 150.399 150.399 153.18 146.97 153.18C143.54 153.18 140.76 150.399 140.76 146.97C140.76 143.54 143.54 140.76 146.97 140.76C150.399 140.76 153.18 143.54 153.18 146.97ZM292.905 146.97C292.905 150.399 290.124 153.18 286.695 153.18C283.265 153.18 280.485 150.399 280.485 146.97C280.485 143.54 283.265 140.76 286.695 140.76C290.124 140.76 292.905 143.54 292.905 146.97ZM292.905 286.695C292.905 290.124 290.124 292.905 286.695 292.905C283.265 292.905 280.485 290.124 280.485 286.695C280.485 283.265 283.265 280.485 286.695 280.485C290.124 280.485 292.905 283.265 292.905 286.695ZM153.18 286.695C153.18 290.124 150.399 292.905 146.97 292.905C143.54 292.905 140.76 290.124 140.76 286.695C140.76 283.265 143.54 280.485 146.97 280.485C150.399 280.485 153.18 283.265 153.18 286.695Z" stroke="white" stroke-width="3"/>
<path d="M287.212 7.24499L287.212 144.9M288.765 146.452H426.419M427.972 144.9L427.972 7.24499M288.765 5.6925H426.419M293.94 6.21C293.94 9.63968 291.159 12.42 287.73 12.42C284.3 12.42 281.52 9.63968 281.52 6.21C281.52 2.78031 284.3 0 287.73 0C291.159 0 293.94 2.78031 293.94 6.21ZM433.664 6.21C433.664 9.63968 430.884 12.42 427.454 12.42C424.025 12.42 421.244 9.63968 421.244 6.21C421.244 2.78031 424.025 0 427.454 0C430.884 0 433.664 2.78031 433.664 6.21ZM433.664 145.935C433.664 149.365 430.884 152.145 427.454 152.145C424.025 152.145 421.244 149.365 421.244 145.935C421.244 142.505 424.025 139.725 427.454 139.725C430.884 139.725 433.664 142.505 433.664 145.935ZM293.94 145.935C293.94 149.365 291.159 152.145 287.73 152.145C284.3 152.145 281.52 149.365 281.52 145.935C281.52 142.505 284.3 139.725 287.73 139.725C291.159 139.725 293.94 142.505 293.94 145.935Z" stroke="white" stroke-width="3"/>
<path d="M287.212 288.765L287.212 426.419M288.765 427.972H426.419M427.972 426.419L427.972 288.765M288.765 287.212H426.419M293.94 287.73C293.94 291.159 291.159 293.94 287.73 293.94C284.3 293.94 281.52 291.159 281.52 287.73C281.52 284.3 284.3 281.52 287.73 281.52C291.159 281.52 293.94 284.3 293.94 287.73ZM433.664 287.73C433.664 291.159 430.884 293.94 427.454 293.94C424.025 293.94 421.244 291.159 421.244 287.73C421.244 284.3 424.025 281.52 427.454 281.52C430.884 281.52 433.664 284.3 433.664 287.73ZM433.664 427.454C433.664 430.884 430.884 433.664 427.454 433.664C424.025 433.664 421.244 430.884 421.244 427.454C421.244 424.025 424.025 421.244 427.454 421.244C430.884 421.244 433.664 424.025 433.664 427.454ZM293.94 427.454C293.94 430.884 291.159 433.664 287.73 433.664C284.3 433.664 281.52 430.884 281.52 427.454C281.52 424.025 284.3 421.244 287.73 421.244C291.159 421.244 293.94 424.025 293.94 427.454Z" stroke="white" stroke-width="3"/>
<path d="M287.212 148.005L287.212 285.66M288.765 287.212H426.419M427.972 285.66L427.972 148.005M288.765 146.452H426.419M293.94 146.97C293.94 150.399 291.159 153.18 287.73 153.18C284.3 153.18 281.52 150.399 281.52 146.97C281.52 143.54 284.3 140.76 287.73 140.76C291.159 140.76 293.94 143.54 293.94 146.97ZM433.664 146.97C433.664 150.399 430.884 153.18 427.454 153.18C424.025 153.18 421.244 150.399 421.244 146.97C421.244 143.54 424.025 140.76 427.454 140.76C430.884 140.76 433.664 143.54 433.664 146.97ZM433.664 286.695C433.664 290.124 430.884 292.905 427.454 292.905C424.025 292.905 421.244 290.124 421.244 286.695C421.244 283.265 424.025 280.485 427.454 280.485C430.884 280.485 433.664 283.265 433.664 286.695ZM293.94 286.695C293.94 290.124 291.159 292.905 287.73 292.905C284.3 292.905 281.52 290.124 281.52 286.695C281.52 283.265 284.3 280.485 287.73 280.485C291.159 280.485 293.94 283.265 293.94 286.695Z" stroke="white" stroke-width="3"/>
<path d="M427.972 7.24499L427.972 144.9M429.524 146.452H567.179M568.732 144.9L568.732 7.24499M429.524 5.6925H567.179M434.699 6.21C434.699 9.63968 431.919 12.42 428.489 12.42C425.06 12.42 422.279 9.63968 422.279 6.21C422.279 2.78031 425.06 0 428.489 0C431.919 0 434.699 2.78031 434.699 6.21ZM574.424 6.21C574.424 9.63968 571.644 12.42 568.214 12.42C564.785 12.42 562.004 9.63968 562.004 6.21C562.004 2.78031 564.785 0 568.214 0C571.644 0 574.424 2.78031 574.424 6.21ZM574.424 145.935C574.424 149.365 571.644 152.145 568.214 152.145C564.785 152.145 562.004 149.365 562.004 145.935C562.004 142.505 564.785 139.725 568.214 139.725C571.644 139.725 574.424 142.505 574.424 145.935ZM434.699 145.935C434.699 149.365 431.919 152.145 428.489 152.145C425.06 152.145 422.279 149.365 422.279 145.935C422.279 142.505 425.06 139.725 428.489 139.725C431.919 139.725 434.699 142.505 434.699 145.935Z" stroke="white" stroke-width="3"/>
<path d="M427.972 288.765L427.972 426.419M429.524 427.972H567.179M568.732 426.419L568.732 288.765M429.524 287.212H567.179M434.699 287.73C434.699 291.159 431.919 293.94 428.489 293.94C425.06 293.94 422.279 291.159 422.279 287.73C422.279 284.3 425.06 281.52 428.489 281.52C431.919 281.52 434.699 284.3 434.699 287.73ZM574.424 287.73C574.424 291.159 571.644 293.94 568.214 293.94C564.785 293.94 562.004 291.159 562.004 287.73C562.004 284.3 564.785 281.52 568.214 281.52C571.644 281.52 574.424 284.3 574.424 287.73ZM574.424 427.454C574.424 430.884 571.644 433.664 568.214 433.664C564.785 433.664 562.004 430.884 562.004 427.454C562.004 424.025 564.785 421.244 568.214 421.244C571.644 421.244 574.424 424.025 574.424 427.454ZM434.699 427.454C434.699 430.884 431.919 433.664 428.489 433.664C425.06 433.664 422.279 430.884 422.279 427.454C422.279 424.025 425.06 421.244 428.489 421.244C431.919 421.244 434.699 424.025 434.699 427.454Z" stroke="white" stroke-width="3"/>
<path d="M427.972 148.005L427.972 285.66M429.524 287.212H567.179M568.732 285.66L568.732 148.005M429.524 146.452H567.179M434.699 146.97C434.699 150.399 431.919 153.18 428.489 153.18C425.06 153.18 422.279 150.399 422.279 146.97C422.279 143.54 425.06 140.76 428.489 140.76C431.919 140.76 434.699 143.54 434.699 146.97ZM574.424 146.97C574.424 150.399 571.644 153.18 568.214 153.18C564.785 153.18 562.004 150.399 562.004 146.97C562.004 143.54 564.785 140.76 568.214 140.76C571.644 140.76 574.424 143.54 574.424 146.97ZM574.424 286.695C574.424 290.124 571.644 292.905 568.214 292.905C564.785 292.905 562.004 290.124 562.004 286.695C562.004 283.265 564.785 280.485 568.214 280.485C571.644 280.485 574.424 283.265 574.424 286.695ZM434.699 286.695C434.699 290.124 431.919 292.905 428.489 292.905C425.06 292.905 422.279 290.124 422.279 286.695C422.279 283.265 425.06 280.485 428.489 280.485C431.919 280.485 434.699 283.265 434.699 286.695Z" stroke="white" stroke-width="3"/>
<path d="M568.733 7.24499L568.733 144.9M570.285 146.452H707.94M709.492 144.9L709.492 7.24499M570.285 5.6925H707.94M575.46 6.21C575.46 9.63968 572.68 12.42 569.25 12.42C565.82 12.42 563.04 9.63968 563.04 6.21C563.04 2.78031 565.82 0 569.25 0C572.68 0 575.46 2.78031 575.46 6.21ZM715.185 6.21C715.185 9.63968 712.405 12.42 708.975 12.42C705.545 12.42 702.765 9.63968 702.765 6.21C702.765 2.78031 705.545 0 708.975 0C712.405 0 715.185 2.78031 715.185 6.21ZM715.185 145.935C715.185 149.365 712.405 152.145 708.975 152.145C705.545 152.145 702.765 149.365 702.765 145.935C702.765 142.505 705.545 139.725 708.975 139.725C712.405 139.725 715.185 142.505 715.185 145.935ZM575.46 145.935C575.46 149.365 572.68 152.145 569.25 152.145C565.82 152.145 563.04 149.365 563.04 145.935C563.04 142.505 565.82 139.725 569.25 139.725C572.68 139.725 575.46 142.505 575.46 145.935Z" stroke="white" stroke-width="3"/>
<path d="M568.733 288.765L568.733 426.419M570.285 427.972H707.94M709.492 426.419L709.492 288.765M570.285 287.212H707.94M575.46 287.73C575.46 291.159 572.68 293.94 569.25 293.94C565.82 293.94 563.04 291.159 563.04 287.73C563.04 284.3 565.82 281.52 569.25 281.52C572.68 281.52 575.46 284.3 575.46 287.73ZM715.185 287.73C715.185 291.159 712.405 293.94 708.975 293.94C705.545 293.94 702.765 291.159 702.765 287.73C702.765 284.3 705.545 281.52 708.975 281.52C712.405 281.52 715.185 284.3 715.185 287.73ZM715.185 427.454C715.185 430.884 712.405 433.664 708.975 433.664C705.545 433.664 702.765 430.884 702.765 427.454C702.765 424.025 705.545 421.244 708.975 421.244C712.405 421.244 715.185 424.025 715.185 427.454ZM575.46 427.454C575.46 430.884 572.68 433.664 569.25 433.664C565.82 433.664 563.04 430.884 563.04 427.454C563.04 424.025 565.82 421.244 569.25 421.244C572.68 421.244 575.46 424.025 575.46 427.454Z" stroke="white" stroke-width="3"/>
<path d="M568.733 148.005L568.733 285.66M570.285 287.212H707.94M709.492 285.66L709.492 148.005M570.285 146.452H707.94M575.46 146.97C575.46 150.399 572.68 153.18 569.25 153.18C565.82 153.18 563.04 150.399 563.04 146.97C563.04 143.54 565.82 140.76 569.25 140.76C572.68 140.76 575.46 143.54 575.46 146.97ZM715.185 146.97C715.185 150.399 712.405 153.18 708.975 153.18C705.545 153.18 702.765 150.399 702.765 146.97C702.765 143.54 705.545 140.76 708.975 140.76C712.405 140.76 715.185 143.54 715.185 146.97ZM715.185 286.695C715.185 290.124 712.405 292.905 708.975 292.905C705.545 292.905 702.765 290.124 702.765 286.695C702.765 283.265 705.545 280.485 708.975 280.485C712.405 280.485 715.185 283.265 715.185 286.695ZM575.46 286.695C575.46 290.124 572.68 292.905 569.25 292.905C565.82 292.905 563.04 290.124 563.04 286.695C563.04 283.265 565.82 280.485 569.25 280.485C572.68 280.485 575.46 283.265 575.46 286.695Z" stroke="white" stroke-width="3"/>
<path d="M709.492 7.24499L709.492 144.9M711.045 146.452H848.7M850.252 144.9L850.252 7.24499M711.045 5.6925H848.7M716.22 6.21C716.22 9.63968 713.439 12.42 710.01 12.42C706.58 12.42 703.8 9.63968 703.8 6.21C703.8 2.78031 706.58 0 710.01 0C713.439 0 716.22 2.78031 716.22 6.21ZM855.945 6.21C855.945 9.63968 853.164 12.42 849.735 12.42C846.305 12.42 843.525 9.63968 843.525 6.21C843.525 2.78031 846.305 0 849.735 0C853.164 0 855.945 2.78031 855.945 6.21ZM855.945 145.935C855.945 149.365 853.164 152.145 849.735 152.145C846.305 152.145 843.525 149.365 843.525 145.935C843.525 142.505 846.305 139.725 849.735 139.725C853.164 139.725 855.945 142.505 855.945 145.935ZM716.22 145.935C716.22 149.365 713.439 152.145 710.01 152.145C706.58 152.145 703.8 149.365 703.8 145.935C703.8 142.505 706.58 139.725 710.01 139.725C713.439 139.725 716.22 142.505 716.22 145.935Z" stroke="white" stroke-width="3"/>
<path d="M709.492 288.765L709.492 426.419M711.045 427.972H848.7M850.252 426.419L850.252 288.765M711.045 287.212H848.7M716.22 287.73C716.22 291.159 713.439 293.94 710.01 293.94C706.58 293.94 703.8 291.159 703.8 287.73C703.8 284.3 706.58 281.52 710.01 281.52C713.439 281.52 716.22 284.3 716.22 287.73ZM855.945 287.73C855.945 291.159 853.164 293.94 849.735 293.94C846.305 293.94 843.525 291.159 843.525 287.73C843.525 284.3 846.305 281.52 849.735 281.52C853.164 281.52 855.945 284.3 855.945 287.73ZM855.945 427.454C855.945 430.884 853.164 433.664 849.735 433.664C846.305 433.664 843.525 430.884 843.525 427.454C843.525 424.025 846.305 421.244 849.735 421.244C853.164 421.244 855.945 424.025 855.945 427.454ZM716.22 427.454C716.22 430.884 713.439 433.664 710.01 433.664C706.58 433.664 703.8 430.884 703.8 427.454C703.8 424.025 706.58 421.244 710.01 421.244C713.439 421.244 716.22 424.025 716.22 427.454Z" stroke="white" stroke-width="3"/>
<path d="M709.492 148.005L709.492 285.66M711.045 287.212H848.7M850.252 285.66L850.252 148.005M711.045 146.452H848.7M716.22 146.97C716.22 150.399 713.439 153.18 710.01 153.18C706.58 153.18 703.8 150.399 703.8 146.97C703.8 143.54 706.58 140.76 710.01 140.76C713.439 140.76 716.22 143.54 716.22 146.97ZM855.945 146.97C855.945 150.399 853.164 153.18 849.735 153.18C846.305 153.18 843.525 150.399 843.525 146.97C843.525 143.54 846.305 140.76 849.735 140.76C853.164 140.76 855.945 143.54 855.945 146.97ZM855.945 286.695C855.945 290.124 853.164 292.905 849.735 292.905C846.305 292.905 843.525 290.124 843.525 286.695C843.525 283.265 846.305 280.485 849.735 280.485C853.164 280.485 855.945 283.265 855.945 286.695ZM716.22 286.695C716.22 290.124 713.439 292.905 710.01 292.905C706.58 292.905 703.8 290.124 703.8 286.695C703.8 283.265 706.58 280.485 710.01 280.485C713.439 280.485 716.22 283.265 716.22 286.695Z" stroke="white" stroke-width="3"/>
<path d="M850.252 7.24499L850.252 144.9M851.805 146.452H989.459M991.012 144.9L991.012 7.24499M851.805 5.6925H989.459M856.98 6.21C856.98 9.63968 854.199 12.42 850.77 12.42C847.34 12.42 844.56 9.63968 844.56 6.21C844.56 2.78031 847.34 0 850.77 0C854.199 0 856.98 2.78031 856.98 6.21ZM996.704 6.21C996.704 9.63968 993.924 12.42 990.494 12.42C987.065 12.42 984.284 9.63968 984.284 6.21C984.284 2.78031 987.065 0 990.494 0C993.924 0 996.704 2.78031 996.704 6.21ZM996.704 145.935C996.704 149.365 993.924 152.145 990.494 152.145C987.065 152.145 984.284 149.365 984.284 145.935C984.284 142.505 987.065 139.725 990.494 139.725C993.924 139.725 996.704 142.505 996.704 145.935ZM856.98 145.935C856.98 149.365 854.199 152.145 850.77 152.145C847.34 152.145 844.56 149.365 844.56 145.935C844.56 142.505 847.34 139.725 850.77 139.725C854.199 139.725 856.98 142.505 856.98 145.935Z" stroke="white" stroke-width="3"/>
<path d="M850.252 288.765L850.252 426.419M851.805 427.972H989.459M991.012 426.419L991.012 288.765M851.805 287.212H989.459M856.98 287.73C856.98 291.159 854.199 293.94 850.77 293.94C847.34 293.94 844.56 291.159 844.56 287.73C844.56 284.3 847.34 281.52 850.77 281.52C854.199 281.52 856.98 284.3 856.98 287.73ZM996.704 287.73C996.704 291.159 993.924 293.94 990.494 293.94C987.065 293.94 984.284 291.159 984.284 287.73C984.284 284.3 987.065 281.52 990.494 281.52C993.924 281.52 996.704 284.3 996.704 287.73ZM996.704 427.454C996.704 430.884 993.924 433.664 990.494 433.664C987.065 433.664 984.284 430.884 984.284 427.454C984.284 424.025 987.065 421.244 990.494 421.244C993.924 421.244 996.704 424.025 996.704 427.454ZM856.98 427.454C856.98 430.884 854.199 433.664 850.77 433.664C847.34 433.664 844.56 430.884 844.56 427.454C844.56 424.025 847.34 421.244 850.77 421.244C854.199 421.244 856.98 424.025 856.98 427.454Z" stroke="white" stroke-width="3"/>
<path d="M850.252 148.005L850.252 285.66M851.805 287.212H989.459M991.012 285.66L991.012 148.005M851.805 146.452H989.459M856.98 146.97C856.98 150.399 854.199 153.18 850.77 153.18C847.34 153.18 844.56 150.399 844.56 146.97C844.56 143.54 847.34 140.76 850.77 140.76C854.199 140.76 856.98 143.54 856.98 146.97ZM996.704 146.97C996.704 150.399 993.924 153.18 990.494 153.18C987.065 153.18 984.284 150.399 984.284 146.97C984.284 143.54 987.065 140.76 990.494 140.76C993.924 140.76 996.704 143.54 996.704 146.97ZM996.704 286.695C996.704 290.124 993.924 292.905 990.494 292.905C987.065 292.905 984.284 290.124 984.284 286.695C984.284 283.265 987.065 280.485 990.494 280.485C993.924 280.485 996.704 283.265 996.704 286.695ZM856.98 286.695C856.98 290.124 854.199 292.905 850.77 292.905C847.34 292.905 844.56 290.124 844.56 286.695C844.56 283.265 847.34 280.485 850.77 280.485C854.199 280.485 856.98 283.265 856.98 286.695Z" stroke="white" stroke-width="3"/>
<path d="M991.012 7.24499L991.012 144.9M992.564 146.452H1130.22M1131.77 144.9L1131.77 7.24499M992.564 5.6925H1130.22M997.739 6.21C997.739 9.63968 994.959 12.42 991.529 12.42C988.1 12.42 985.319 9.63968 985.319 6.21C985.319 2.78031 988.1 0 991.529 0C994.959 0 997.739 2.78031 997.739 6.21ZM1137.46 6.21C1137.46 9.63968 1134.68 12.42 1131.25 12.42C1127.82 12.42 1125.04 9.63968 1125.04 6.21C1125.04 2.78031 1127.82 0 1131.25 0C1134.68 0 1137.46 2.78031 1137.46 6.21ZM1137.46 145.935C1137.46 149.365 1134.68 152.145 1131.25 152.145C1127.82 152.145 1125.04 149.365 1125.04 145.935C1125.04 142.505 1127.82 139.725 1131.25 139.725C1134.68 139.725 1137.46 142.505 1137.46 145.935ZM997.739 145.935C997.739 149.365 994.959 152.145 991.529 152.145C988.1 152.145 985.319 149.365 985.319 145.935C985.319 142.505 988.1 139.725 991.529 139.725C994.959 139.725 997.739 142.505 997.739 145.935Z" stroke="white" stroke-width="3"/>
<path d="M991.012 288.765L991.012 426.419M992.564 427.972H1130.22M1131.77 426.419L1131.77 288.765M992.564 287.212H1130.22M997.739 287.73C997.739 291.159 994.959 293.94 991.529 293.94C988.1 293.94 985.319 291.159 985.319 287.73C985.319 284.3 988.1 281.52 991.529 281.52C994.959 281.52 997.739 284.3 997.739 287.73ZM1137.46 287.73C1137.46 291.159 1134.68 293.94 1131.25 293.94C1127.82 293.94 1125.04 291.159 1125.04 287.73C1125.04 284.3 1127.82 281.52 1131.25 281.52C1134.68 281.52 1137.46 284.3 1137.46 287.73ZM1137.46 427.454C1137.46 430.884 1134.68 433.664 1131.25 433.664C1127.82 433.664 1125.04 430.884 1125.04 427.454C1125.04 424.025 1127.82 421.244 1131.25 421.244C1134.68 421.244 1137.46 424.025 1137.46 427.454ZM997.739 427.454C997.739 430.884 994.959 433.664 991.529 433.664C988.1 433.664 985.319 430.884 985.319 427.454C985.319 424.025 988.1 421.244 991.529 421.244C994.959 421.244 997.739 424.025 997.739 427.454Z" stroke="white" stroke-width="3"/>
<path d="M991.012 148.005L991.012 285.66M992.564 287.212H1130.22M1131.77 285.66L1131.77 148.005M992.564 146.452H1130.22M997.739 146.97C997.739 150.399 994.959 153.18 991.529 153.18C988.1 153.18 985.319 150.399 985.319 146.97C985.319 143.54 988.1 140.76 991.529 140.76C994.959 140.76 997.739 143.54 997.739 146.97ZM1137.46 146.97C1137.46 150.399 1134.68 153.18 1131.25 153.18C1127.82 153.18 1125.04 150.399 1125.04 146.97C1125.04 143.54 1127.82 140.76 1131.25 140.76C1134.68 140.76 1137.46 143.54 1137.46 146.97ZM1137.46 286.695C1137.46 290.124 1134.68 292.905 1131.25 292.905C1127.82 292.905 1125.04 290.124 1125.04 286.695C1125.04 283.265 1127.82 280.485 1131.25 280.485C1134.68 280.485 1137.46 283.265 1137.46 286.695ZM997.739 286.695C997.739 290.124 994.959 292.905 991.529 292.905C988.1 292.905 985.319 290.124 985.319 286.695C985.319 283.265 988.1 280.485 991.529 280.485C994.959 280.485 997.739 283.265 997.739 286.695Z" stroke="white" stroke-width="3"/>
<path d="M1131.77 7.24499L1131.77 144.9M1133.32 146.452H1270.98M1272.53 144.9L1272.53 7.24499M1133.32 5.6925H1270.98M1138.5 6.21C1138.5 9.63968 1135.72 12.42 1132.29 12.42C1128.86 12.42 1126.08 9.63968 1126.08 6.21C1126.08 2.78031 1128.86 0 1132.29 0C1135.72 0 1138.5 2.78031 1138.5 6.21ZM1278.22 6.21C1278.22 9.63968 1275.44 12.42 1272.01 12.42C1268.58 12.42 1265.8 9.63968 1265.8 6.21C1265.8 2.78031 1268.58 0 1272.01 0C1275.44 0 1278.22 2.78031 1278.22 6.21ZM1278.22 145.935C1278.22 149.365 1275.44 152.145 1272.01 152.145C1268.58 152.145 1265.8 149.365 1265.8 145.935C1265.8 142.505 1268.58 139.725 1272.01 139.725C1275.44 139.725 1278.22 142.505 1278.22 145.935ZM1138.5 145.935C1138.5 149.365 1135.72 152.145 1132.29 152.145C1128.86 152.145 1126.08 149.365 1126.08 145.935C1126.08 142.505 1128.86 139.725 1132.29 139.725C1135.72 139.725 1138.5 142.505 1138.5 145.935Z" stroke="white" stroke-width="3"/>
<path d="M1131.77 288.765L1131.77 426.419M1133.32 427.972H1270.98M1272.53 426.419L1272.53 288.765M1133.32 287.212H1270.98M1138.5 287.73C1138.5 291.159 1135.72 293.94 1132.29 293.94C1128.86 293.94 1126.08 291.159 1126.08 287.73C1126.08 284.3 1128.86 281.52 1132.29 281.52C1135.72 281.52 1138.5 284.3 1138.5 287.73ZM1278.22 287.73C1278.22 291.159 1275.44 293.94 1272.01 293.94C1268.58 293.94 1265.8 291.159 1265.8 287.73C1265.8 284.3 1268.58 281.52 1272.01 281.52C1275.44 281.52 1278.22 284.3 1278.22 287.73ZM1278.22 427.454C1278.22 430.884 1275.44 433.664 1272.01 433.664C1268.58 433.664 1265.8 430.884 1265.8 427.454C1265.8 424.025 1268.58 421.244 1272.01 421.244C1275.44 421.244 1278.22 424.025 1278.22 427.454ZM1138.5 427.454C1138.5 430.884 1135.72 433.664 1132.29 433.664C1128.86 433.664 1126.08 430.884 1126.08 427.454C1126.08 424.025 1128.86 421.244 1132.29 421.244C1135.72 421.244 1138.5 424.025 1138.5 427.454Z" stroke="white" stroke-width="3"/>
<path d="M1131.77 148.005L1131.77 285.66M1133.32 287.212H1270.98M1272.53 285.66L1272.53 148.005M1133.32 146.452H1270.98M1138.5 146.97C1138.5 150.399 1135.72 153.18 1132.29 153.18C1128.86 153.18 1126.08 150.399 1126.08 146.97C1126.08 143.54 1128.86 140.76 1132.29 140.76C1135.72 140.76 1138.5 143.54 1138.5 146.97ZM1278.22 146.97C1278.22 150.399 1275.44 153.18 1272.01 153.18C1268.58 153.18 1265.8 150.399 1265.8 146.97C1265.8 143.54 1268.58 140.76 1272.01 140.76C1275.44 140.76 1278.22 143.54 1278.22 146.97ZM1278.22 286.695C1278.22 290.124 1275.44 292.905 1272.01 292.905C1268.58 292.905 1265.8 290.124 1265.8 286.695C1265.8 283.265 1268.58 280.485 1272.01 280.485C1275.44 280.485 1278.22 283.265 1278.22 286.695ZM1138.5 286.695C1138.5 290.124 1135.72 292.905 1132.29 292.905C1128.86 292.905 1126.08 290.124 1126.08 286.695C1126.08 283.265 1128.86 280.485 1132.29 280.485C1135.72 280.485 1138.5 283.265 1138.5 286.695Z" stroke="white" stroke-width="3"/>
<path d="M1272.53 7.24499L1272.53 144.9M1274.08 146.452H1411.74M1413.29 144.9L1413.29 7.24499M1274.08 5.6925H1411.74M1279.26 6.21C1279.26 9.63968 1276.48 12.42 1273.05 12.42C1269.62 12.42 1266.84 9.63968 1266.84 6.21C1266.84 2.78031 1269.62 0 1273.05 0C1276.48 0 1279.26 2.78031 1279.26 6.21ZM1418.98 6.21C1418.98 9.63968 1416.2 12.42 1412.77 12.42C1409.34 12.42 1406.56 9.63968 1406.56 6.21C1406.56 2.78031 1409.34 0 1412.77 0C1416.2 0 1418.98 2.78031 1418.98 6.21ZM1418.98 145.935C1418.98 149.365 1416.2 152.145 1412.77 152.145C1409.34 152.145 1406.56 149.365 1406.56 145.935C1406.56 142.505 1409.34 139.725 1412.77 139.725C1416.2 139.725 1418.98 142.505 1418.98 145.935ZM1279.26 145.935C1279.26 149.365 1276.48 152.145 1273.05 152.145C1269.62 152.145 1266.84 149.365 1266.84 145.935C1266.84 142.505 1269.62 139.725 1273.05 139.725C1276.48 139.725 1279.26 142.505 1279.26 145.935Z" stroke="white" stroke-width="3"/>
<path d="M1272.53 288.765L1272.53 426.419M1274.08 427.972H1411.74M1413.29 426.419L1413.29 288.765M1274.08 287.212H1411.74M1279.26 287.73C1279.26 291.159 1276.48 293.94 1273.05 293.94C1269.62 293.94 1266.84 291.159 1266.84 287.73C1266.84 284.3 1269.62 281.52 1273.05 281.52C1276.48 281.52 1279.26 284.3 1279.26 287.73ZM1418.98 287.73C1418.98 291.159 1416.2 293.94 1412.77 293.94C1409.34 293.94 1406.56 291.159 1406.56 287.73C1406.56 284.3 1409.34 281.52 1412.77 281.52C1416.2 281.52 1418.98 284.3 1418.98 287.73ZM1418.98 427.454C1418.98 430.884 1416.2 433.664 1412.77 433.664C1409.34 433.664 1406.56 430.884 1406.56 427.454C1406.56 424.025 1409.34 421.244 1412.77 421.244C1416.2 421.244 1418.98 424.025 1418.98 427.454ZM1279.26 427.454C1279.26 430.884 1276.48 433.664 1273.05 433.664C1269.62 433.664 1266.84 430.884 1266.84 427.454C1266.84 424.025 1269.62 421.244 1273.05 421.244C1276.48 421.244 1279.26 424.025 1279.26 427.454Z" stroke="white" stroke-width="3"/>
<path d="M1272.53 148.005L1272.53 285.66M1274.08 287.212H1411.74M1413.29 285.66L1413.29 148.005M1274.08 146.452H1411.74M1279.26 146.97C1279.26 150.399 1276.48 153.18 1273.05 153.18C1269.62 153.18 1266.84 150.399 1266.84 146.97C1266.84 143.54 1269.62 140.76 1273.05 140.76C1276.48 140.76 1279.26 143.54 1279.26 146.97ZM1418.98 146.97C1418.98 150.399 1416.2 153.18 1412.77 153.18C1409.34 153.18 1406.56 150.399 1406.56 146.97C1406.56 143.54 1409.34 140.76 1412.77 140.76C1416.2 140.76 1418.98 143.54 1418.98 146.97ZM1418.98 286.695C1418.98 290.124 1416.2 292.905 1412.77 292.905C1409.34 292.905 1406.56 290.124 1406.56 286.695C1406.56 283.265 1409.34 280.485 1412.77 280.485C1416.2 280.485 1418.98 283.265 1418.98 286.695ZM1279.26 286.695C1279.26 290.124 1276.48 292.905 1273.05 292.905C1269.62 292.905 1266.84 290.124 1266.84 286.695C1266.84 283.265 1269.62 280.485 1273.05 280.485C1276.48 280.485 1279.26 283.265 1279.26 286.695Z" stroke="white" stroke-width="3"/>
<path d="M1413.29 7.24499L1413.29 144.9M1414.84 146.452H1552.5M1554.05 144.9L1554.05 7.24499M1414.84 5.6925H1552.5M1420.02 6.21C1420.02 9.63968 1417.24 12.42 1413.81 12.42C1410.38 12.42 1407.6 9.63968 1407.6 6.21C1407.6 2.78031 1410.38 0 1413.81 0C1417.24 0 1420.02 2.78031 1420.02 6.21ZM1559.74 6.21C1559.74 9.63968 1556.96 12.42 1553.53 12.42C1550.1 12.42 1547.32 9.63968 1547.32 6.21C1547.32 2.78031 1550.1 0 1553.53 0C1556.96 0 1559.74 2.78031 1559.74 6.21ZM1559.74 145.935C1559.74 149.365 1556.96 152.145 1553.53 152.145C1550.1 152.145 1547.32 149.365 1547.32 145.935C1547.32 142.505 1550.1 139.725 1553.53 139.725C1556.96 139.725 1559.74 142.505 1559.74 145.935ZM1420.02 145.935C1420.02 149.365 1417.24 152.145 1413.81 152.145C1410.38 152.145 1407.6 149.365 1407.6 145.935C1407.6 142.505 1410.38 139.725 1413.81 139.725C1417.24 139.725 1420.02 142.505 1420.02 145.935Z" stroke="white" stroke-width="3"/>
<path d="M1413.29 288.765L1413.29 426.419M1414.84 427.972H1552.5M1554.05 426.419L1554.05 288.765M1414.84 287.212H1552.5M1420.02 287.73C1420.02 291.159 1417.24 293.94 1413.81 293.94C1410.38 293.94 1407.6 291.159 1407.6 287.73C1407.6 284.3 1410.38 281.52 1413.81 281.52C1417.24 281.52 1420.02 284.3 1420.02 287.73ZM1559.74 287.73C1559.74 291.159 1556.96 293.94 1553.53 293.94C1550.1 293.94 1547.32 291.159 1547.32 287.73C1547.32 284.3 1550.1 281.52 1553.53 281.52C1556.96 281.52 1559.74 284.3 1559.74 287.73ZM1559.74 427.454C1559.74 430.884 1556.96 433.664 1553.53 433.664C1550.1 433.664 1547.32 430.884 1547.32 427.454C1547.32 424.025 1550.1 421.244 1553.53 421.244C1556.96 421.244 1559.74 424.025 1559.74 427.454ZM1420.02 427.454C1420.02 430.884 1417.24 433.664 1413.81 433.664C1410.38 433.664 1407.6 430.884 1407.6 427.454C1407.6 424.025 1410.38 421.244 1413.81 421.244C1417.24 421.244 1420.02 424.025 1420.02 427.454Z" stroke="white" stroke-width="3"/>
<path d="M1413.29 148.005L1413.29 285.66M1414.84 287.212H1552.5M1554.05 285.66L1554.05 148.005M1414.84 146.452H1552.5M1420.02 146.97C1420.02 150.399 1417.24 153.18 1413.81 153.18C1410.38 153.18 1407.6 150.399 1407.6 146.97C1407.6 143.54 1410.38 140.76 1413.81 140.76C1417.24 140.76 1420.02 143.54 1420.02 146.97ZM1559.74 146.97C1559.74 150.399 1556.96 153.18 1553.53 153.18C1550.1 153.18 1547.32 150.399 1547.32 146.97C1547.32 143.54 1550.1 140.76 1553.53 140.76C1556.96 140.76 1559.74 143.54 1559.74 146.97ZM1559.74 286.695C1559.74 290.124 1556.96 292.905 1553.53 292.905C1550.1 292.905 1547.32 290.124 1547.32 286.695C1547.32 283.265 1550.1 280.485 1553.53 280.485C1556.96 280.485 1559.74 283.265 1559.74 286.695ZM1420.02 286.695C1420.02 290.124 1417.24 292.905 1413.81 292.905C1410.38 292.905 1407.6 290.124 1407.6 286.695C1407.6 283.265 1410.38 280.485 1413.81 280.485C1417.24 280.485 1420.02 283.265 1420.02 286.695Z" stroke="white" stroke-width="3"/>
<path d="M1554.05 7.24499L1554.05 144.9M1555.6 146.452H1693.26M1694.81 144.9L1694.81 7.24499M1555.6 5.6925H1693.26M1560.78 6.21C1560.78 9.63968 1558 12.42 1554.57 12.42C1551.14 12.42 1548.36 9.63968 1548.36 6.21C1548.36 2.78031 1551.14 0 1554.57 0C1558 0 1560.78 2.78031 1560.78 6.21ZM1700.5 6.21C1700.5 9.63968 1697.72 12.42 1694.29 12.42C1690.86 12.42 1688.08 9.63968 1688.08 6.21C1688.08 2.78031 1690.86 0 1694.29 0C1697.72 0 1700.5 2.78031 1700.5 6.21ZM1700.5 145.935C1700.5 149.365 1697.72 152.145 1694.29 152.145C1690.86 152.145 1688.08 149.365 1688.08 145.935C1688.08 142.505 1690.86 139.725 1694.29 139.725C1697.72 139.725 1700.5 142.505 1700.5 145.935ZM1560.78 145.935C1560.78 149.365 1558 152.145 1554.57 152.145C1551.14 152.145 1548.36 149.365 1548.36 145.935C1548.36 142.505 1551.14 139.725 1554.57 139.725C1558 139.725 1560.78 142.505 1560.78 145.935Z" stroke="white" stroke-width="3"/>
<path d="M1554.05 288.765L1554.05 426.419M1555.6 427.972H1693.26M1694.81 426.419L1694.81 288.765M1555.6 287.212H1693.26M1560.78 287.73C1560.78 291.159 1558 293.94 1554.57 293.94C1551.14 293.94 1548.36 291.159 1548.36 287.73C1548.36 284.3 1551.14 281.52 1554.57 281.52C1558 281.52 1560.78 284.3 1560.78 287.73ZM1700.5 287.73C1700.5 291.159 1697.72 293.94 1694.29 293.94C1690.86 293.94 1688.08 291.159 1688.08 287.73C1688.08 284.3 1690.86 281.52 1694.29 281.52C1697.72 281.52 1700.5 284.3 1700.5 287.73ZM1700.5 427.454C1700.5 430.884 1697.72 433.664 1694.29 433.664C1690.86 433.664 1688.08 430.884 1688.08 427.454C1688.08 424.025 1690.86 421.244 1694.29 421.244C1697.72 421.244 1700.5 424.025 1700.5 427.454ZM1560.78 427.454C1560.78 430.884 1558 433.664 1554.57 433.664C1551.14 433.664 1548.36 430.884 1548.36 427.454C1548.36 424.025 1551.14 421.244 1554.57 421.244C1558 421.244 1560.78 424.025 1560.78 427.454Z" stroke="white" stroke-width="3"/>
<path d="M1554.05 148.005L1554.05 285.66M1555.6 287.212H1693.26M1694.81 285.66L1694.81 148.005M1555.6 146.452H1693.26M1560.78 146.97C1560.78 150.399 1558 153.18 1554.57 153.18C1551.14 153.18 1548.36 150.399 1548.36 146.97C1548.36 143.54 1551.14 140.76 1554.57 140.76C1558 140.76 1560.78 143.54 1560.78 146.97ZM1700.5 146.97C1700.5 150.399 1697.72 153.18 1694.29 153.18C1690.86 153.18 1688.08 150.399 1688.08 146.97C1688.08 143.54 1690.86 140.76 1694.29 140.76C1697.72 140.76 1700.5 143.54 1700.5 146.97ZM1700.5 286.695C1700.5 290.124 1697.72 292.905 1694.29 292.905C1690.86 292.905 1688.08 290.124 1688.08 286.695C1688.08 283.265 1690.86 280.485 1694.29 280.485C1697.72 280.485 1700.5 283.265 1700.5 286.695ZM1560.78 286.695C1560.78 290.124 1558 292.905 1554.57 292.905C1551.14 292.905 1548.36 290.124 1548.36 286.695C1548.36 283.265 1551.14 280.485 1554.57 280.485C1558 280.485 1560.78 283.265 1560.78 286.695Z" stroke="white" stroke-width="3"/>
<path d="M1694.81 7.24499L1694.81 144.9M1696.36 146.452H1834.02M1835.57 144.9L1835.57 7.24499M1696.36 5.6925H1834.02M1701.54 6.21C1701.54 9.63968 1698.76 12.42 1695.33 12.42C1691.9 12.42 1689.12 9.63968 1689.12 6.21C1689.12 2.78031 1691.9 0 1695.33 0C1698.76 0 1701.54 2.78031 1701.54 6.21ZM1841.26 6.21C1841.26 9.63968 1838.48 12.42 1835.05 12.42C1831.62 12.42 1828.84 9.63968 1828.84 6.21C1828.84 2.78031 1831.62 0 1835.05 0C1838.48 0 1841.26 2.78031 1841.26 6.21ZM1841.26 145.935C1841.26 149.365 1838.48 152.145 1835.05 152.145C1831.62 152.145 1828.84 149.365 1828.84 145.935C1828.84 142.505 1831.62 139.725 1835.05 139.725C1838.48 139.725 1841.26 142.505 1841.26 145.935ZM1701.54 145.935C1701.54 149.365 1698.76 152.145 1695.33 152.145C1691.9 152.145 1689.12 149.365 1689.12 145.935C1689.12 142.505 1691.9 139.725 1695.33 139.725C1698.76 139.725 1701.54 142.505 1701.54 145.935Z" stroke="white" stroke-width="3"/>
<path d="M1694.81 288.765L1694.81 426.419M1696.36 427.972H1834.02M1835.57 426.419L1835.57 288.765M1696.36 287.212H1834.02M1701.54 287.73C1701.54 291.159 1698.76 293.94 1695.33 293.94C1691.9 293.94 1689.12 291.159 1689.12 287.73C1689.12 284.3 1691.9 281.52 1695.33 281.52C1698.76 281.52 1701.54 284.3 1701.54 287.73ZM1841.26 287.73C1841.26 291.159 1838.48 293.94 1835.05 293.94C1831.62 293.94 1828.84 291.159 1828.84 287.73C1828.84 284.3 1831.62 281.52 1835.05 281.52C1838.48 281.52 1841.26 284.3 1841.26 287.73ZM1841.26 427.454C1841.26 430.884 1838.48 433.664 1835.05 433.664C1831.62 433.664 1828.84 430.884 1828.84 427.454C1828.84 424.025 1831.62 421.244 1835.05 421.244C1838.48 421.244 1841.26 424.025 1841.26 427.454ZM1701.54 427.454C1701.54 430.884 1698.76 433.664 1695.33 433.664C1691.9 433.664 1689.12 430.884 1689.12 427.454C1689.12 424.025 1691.9 421.244 1695.33 421.244C1698.76 421.244 1701.54 424.025 1701.54 427.454Z" stroke="white" stroke-width="3"/>
<path d="M1694.81 148.005L1694.81 285.66M1696.36 287.212H1834.02M1835.57 285.66L1835.57 148.005M1696.36 146.452H1834.02M1701.54 146.97C1701.54 150.399 1698.76 153.18 1695.33 153.18C1691.9 153.18 1689.12 150.399 1689.12 146.97C1689.12 143.54 1691.9 140.76 1695.33 140.76C1698.76 140.76 1701.54 143.54 1701.54 146.97ZM1841.26 146.97C1841.26 150.399 1838.48 153.18 1835.05 153.18C1831.62 153.18 1828.84 150.399 1828.84 146.97C1828.84 143.54 1831.62 140.76 1835.05 140.76C1838.48 140.76 1841.26 143.54 1841.26 146.97ZM1841.26 286.695C1841.26 290.124 1838.48 292.905 1835.05 292.905C1831.62 292.905 1828.84 290.124 1828.84 286.695C1828.84 283.265 1831.62 280.485 1835.05 280.485C1838.48 280.485 1841.26 283.265 1841.26 286.695ZM1701.54 286.695C1701.54 290.124 1698.76 292.905 1695.33 292.905C1691.9 292.905 1689.12 290.124 1689.12 286.695C1689.12 283.265 1691.9 280.485 1695.33 280.485C1698.76 280.485 1701.54 283.265 1701.54 286.695Z" stroke="white" stroke-width="3"/>
<path d="M1554.05 7.24499L1554.05 144.9M1555.6 146.452H1693.26M1694.81 144.9L1694.81 7.24499M1555.6 5.6925H1693.26M1560.78 6.21C1560.78 9.63968 1558 12.42 1554.57 12.42C1551.14 12.42 1548.36 9.63968 1548.36 6.21C1548.36 2.78031 1551.14 0 1554.57 0C1558 0 1560.78 2.78031 1560.78 6.21ZM1700.5 6.21C1700.5 9.63968 1697.72 12.42 1694.29 12.42C1690.86 12.42 1688.08 9.63968 1688.08 6.21C1688.08 2.78031 1690.86 0 1694.29 0C1697.72 0 1700.5 2.78031 1700.5 6.21ZM1700.5 145.935C1700.5 149.365 1697.72 152.145 1694.29 152.145C1690.86 152.145 1688.08 149.365 1688.08 145.935C1688.08 142.505 1690.86 139.725 1694.29 139.725C1697.72 139.725 1700.5 142.505 1700.5 145.935ZM1560.78 145.935C1560.78 149.365 1558 152.145 1554.57 152.145C1551.14 152.145 1548.36 149.365 1548.36 145.935C1548.36 142.505 1551.14 139.725 1554.57 139.725C1558 139.725 1560.78 142.505 1560.78 145.935Z" stroke="white" stroke-width="3"/>
<path d="M1554.05 288.765L1554.05 426.419M1555.6 427.972H1693.26M1694.81 426.419L1694.81 288.765M1555.6 287.212H1693.26M1560.78 287.73C1560.78 291.159 1558 293.94 1554.57 293.94C1551.14 293.94 1548.36 291.159 1548.36 287.73C1548.36 284.3 1551.14 281.52 1554.57 281.52C1558 281.52 1560.78 284.3 1560.78 287.73ZM1700.5 287.73C1700.5 291.159 1697.72 293.94 1694.29 293.94C1690.86 293.94 1688.08 291.159 1688.08 287.73C1688.08 284.3 1690.86 281.52 1694.29 281.52C1697.72 281.52 1700.5 284.3 1700.5 287.73ZM1700.5 427.454C1700.5 430.884 1697.72 433.664 1694.29 433.664C1690.86 433.664 1688.08 430.884 1688.08 427.454C1688.08 424.025 1690.86 421.244 1694.29 421.244C1697.72 421.244 1700.5 424.025 1700.5 427.454ZM1560.78 427.454C1560.78 430.884 1558 433.664 1554.57 433.664C1551.14 433.664 1548.36 430.884 1548.36 427.454C1548.36 424.025 1551.14 421.244 1554.57 421.244C1558 421.244 1560.78 424.025 1560.78 427.454Z" stroke="white" stroke-width="3"/>
<path d="M1554.05 148.005L1554.05 285.66M1555.6 287.212H1693.26M1694.81 285.66L1694.81 148.005M1555.6 146.452H1693.26M1560.78 146.97C1560.78 150.399 1558 153.18 1554.57 153.18C1551.14 153.18 1548.36 150.399 1548.36 146.97C1548.36 143.54 1551.14 140.76 1554.57 140.76C1558 140.76 1560.78 143.54 1560.78 146.97ZM1700.5 146.97C1700.5 150.399 1697.72 153.18 1694.29 153.18C1690.86 153.18 1688.08 150.399 1688.08 146.97C1688.08 143.54 1690.86 140.76 1694.29 140.76C1697.72 140.76 1700.5 143.54 1700.5 146.97ZM1700.5 286.695C1700.5 290.124 1697.72 292.905 1694.29 292.905C1690.86 292.905 1688.08 290.124 1688.08 286.695C1688.08 283.265 1690.86 280.485 1694.29 280.485C1697.72 280.485 1700.5 283.265 1700.5 286.695ZM1560.78 286.695C1560.78 290.124 1558 292.905 1554.57 292.905C1551.14 292.905 1548.36 290.124 1548.36 286.695C1548.36 283.265 1551.14 280.485 1554.57 280.485C1558 280.485 1560.78 283.265 1560.78 286.695Z" stroke="white" stroke-width="3"/>
<path d="M1694.81 7.24499L1694.81 144.9M1696.36 146.452H1834.02M1835.57 144.9L1835.57 7.24499M1696.36 5.6925H1834.02M1701.54 6.21C1701.54 9.63968 1698.76 12.42 1695.33 12.42C1691.9 12.42 1689.12 9.63968 1689.12 6.21C1689.12 2.78031 1691.9 0 1695.33 0C1698.76 0 1701.54 2.78031 1701.54 6.21ZM1841.26 6.21C1841.26 9.63968 1838.48 12.42 1835.05 12.42C1831.62 12.42 1828.84 9.63968 1828.84 6.21C1828.84 2.78031 1831.62 0 1835.05 0C1838.48 0 1841.26 2.78031 1841.26 6.21ZM1841.26 145.935C1841.26 149.365 1838.48 152.145 1835.05 152.145C1831.62 152.145 1828.84 149.365 1828.84 145.935C1828.84 142.505 1831.62 139.725 1835.05 139.725C1838.48 139.725 1841.26 142.505 1841.26 145.935ZM1701.54 145.935C1701.54 149.365 1698.76 152.145 1695.33 152.145C1691.9 152.145 1689.12 149.365 1689.12 145.935C1689.12 142.505 1691.9 139.725 1695.33 139.725C1698.76 139.725 1701.54 142.505 1701.54 145.935Z" stroke="white" stroke-width="3"/>
<path d="M1694.81 288.765L1694.81 426.419M1696.36 427.972H1834.02M1835.57 426.419L1835.57 288.765M1696.36 287.212H1834.02M1701.54 287.73C1701.54 291.159 1698.76 293.94 1695.33 293.94C1691.9 293.94 1689.12 291.159 1689.12 287.73C1689.12 284.3 1691.9 281.52 1695.33 281.52C1698.76 281.52 1701.54 284.3 1701.54 287.73ZM1841.26 287.73C1841.26 291.159 1838.48 293.94 1835.05 293.94C1831.62 293.94 1828.84 291.159 1828.84 287.73C1828.84 284.3 1831.62 281.52 1835.05 281.52C1838.48 281.52 1841.26 284.3 1841.26 287.73ZM1841.26 427.454C1841.26 430.884 1838.48 433.664 1835.05 433.664C1831.62 433.664 1828.84 430.884 1828.84 427.454C1828.84 424.025 1831.62 421.244 1835.05 421.244C1838.48 421.244 1841.26 424.025 1841.26 427.454ZM1701.54 427.454C1701.54 430.884 1698.76 433.664 1695.33 433.664C1691.9 433.664 1689.12 430.884 1689.12 427.454C1689.12 424.025 1691.9 421.244 1695.33 421.244C1698.76 421.244 1701.54 424.025 1701.54 427.454Z" stroke="white" stroke-width="3"/>
<path d="M1694.81 148.005L1694.81 285.66M1696.36 287.212H1834.02M1835.57 285.66L1835.57 148.005M1696.36 146.452H1834.02M1701.54 146.97C1701.54 150.399 1698.76 153.18 1695.33 153.18C1691.9 153.18 1689.12 150.399 1689.12 146.97C1689.12 143.54 1691.9 140.76 1695.33 140.76C1698.76 140.76 1701.54 143.54 1701.54 146.97ZM1841.26 146.97C1841.26 150.399 1838.48 153.18 1835.05 153.18C1831.62 153.18 1828.84 150.399 1828.84 146.97C1828.84 143.54 1831.62 140.76 1835.05 140.76C1838.48 140.76 1841.26 143.54 1841.26 146.97ZM1841.26 286.695C1841.26 290.124 1838.48 292.905 1835.05 292.905C1831.62 292.905 1828.84 290.124 1828.84 286.695C1828.84 283.265 1831.62 280.485 1835.05 280.485C1838.48 280.485 1841.26 283.265 1841.26 286.695ZM1701.54 286.695C1701.54 290.124 1698.76 292.905 1695.33 292.905C1691.9 292.905 1689.12 290.124 1689.12 286.695C1689.12 283.265 1691.9 280.485 1695.33 280.485C1698.76 280.485 1701.54 283.265 1701.54 286.695Z" stroke="white" stroke-width="3"/>
<path d="M1835.57 7.24499L1835.57 144.9M1837.12 146.452H1974.78M1976.33 144.9L1976.33 7.24499M1837.12 5.6925H1974.78M1842.3 6.21C1842.3 9.63968 1839.52 12.42 1836.09 12.42C1832.66 12.42 1829.88 9.63968 1829.88 6.21C1829.88 2.78031 1832.66 0 1836.09 0C1839.52 0 1842.3 2.78031 1842.3 6.21ZM1982.02 6.21C1982.02 9.63968 1979.24 12.42 1975.81 12.42C1972.38 12.42 1969.6 9.63968 1969.6 6.21C1969.6 2.78031 1972.38 0 1975.81 0C1979.24 0 1982.02 2.78031 1982.02 6.21ZM1982.02 145.935C1982.02 149.365 1979.24 152.145 1975.81 152.145C1972.38 152.145 1969.6 149.365 1969.6 145.935C1969.6 142.505 1972.38 139.725 1975.81 139.725C1979.24 139.725 1982.02 142.505 1982.02 145.935ZM1842.3 145.935C1842.3 149.365 1839.52 152.145 1836.09 152.145C1832.66 152.145 1829.88 149.365 1829.88 145.935C1829.88 142.505 1832.66 139.725 1836.09 139.725C1839.52 139.725 1842.3 142.505 1842.3 145.935Z" stroke="white" stroke-width="3"/>
<path d="M1835.57 288.765L1835.57 426.419M1837.12 427.972H1974.78M1976.33 426.419L1976.33 288.765M1837.12 287.212H1974.78M1842.3 287.73C1842.3 291.159 1839.52 293.94 1836.09 293.94C1832.66 293.94 1829.88 291.159 1829.88 287.73C1829.88 284.3 1832.66 281.52 1836.09 281.52C1839.52 281.52 1842.3 284.3 1842.3 287.73ZM1982.02 287.73C1982.02 291.159 1979.24 293.94 1975.81 293.94C1972.38 293.94 1969.6 291.159 1969.6 287.73C1969.6 284.3 1972.38 281.52 1975.81 281.52C1979.24 281.52 1982.02 284.3 1982.02 287.73ZM1982.02 427.454C1982.02 430.884 1979.24 433.664 1975.81 433.664C1972.38 433.664 1969.6 430.884 1969.6 427.454C1969.6 424.025 1972.38 421.244 1975.81 421.244C1979.24 421.244 1982.02 424.025 1982.02 427.454ZM1842.3 427.454C1842.3 430.884 1839.52 433.664 1836.09 433.664C1832.66 433.664 1829.88 430.884 1829.88 427.454C1829.88 424.025 1832.66 421.244 1836.09 421.244C1839.52 421.244 1842.3 424.025 1842.3 427.454Z" stroke="white" stroke-width="3"/>
<path d="M1835.57 148.005L1835.57 285.66M1837.12 287.212H1974.78M1976.33 285.66L1976.33 148.005M1837.12 146.452H1974.78M1842.3 146.97C1842.3 150.399 1839.52 153.18 1836.09 153.18C1832.66 153.18 1829.88 150.399 1829.88 146.97C1829.88 143.54 1832.66 140.76 1836.09 140.76C1839.52 140.76 1842.3 143.54 1842.3 146.97ZM1982.02 146.97C1982.02 150.399 1979.24 153.18 1975.81 153.18C1972.38 153.18 1969.6 150.399 1969.6 146.97C1969.6 143.54 1972.38 140.76 1975.81 140.76C1979.24 140.76 1982.02 143.54 1982.02 146.97ZM1982.02 286.695C1982.02 290.124 1979.24 292.905 1975.81 292.905C1972.38 292.905 1969.6 290.124 1969.6 286.695C1969.6 283.265 1972.38 280.485 1975.81 280.485C1979.24 280.485 1982.02 283.265 1982.02 286.695ZM1842.3 286.695C1842.3 290.124 1839.52 292.905 1836.09 292.905C1832.66 292.905 1829.88 290.124 1829.88 286.695C1829.88 283.265 1832.66 280.485 1836.09 280.485C1839.52 280.485 1842.3 283.265 1842.3 286.695Z" stroke="white" stroke-width="3"/>
<path d="M1835.57 7.24499L1835.57 144.9M1837.12 146.452H1974.78M1976.33 144.9L1976.33 7.24499M1837.12 5.6925H1974.78M1842.3 6.21C1842.3 9.63968 1839.52 12.42 1836.09 12.42C1832.66 12.42 1829.88 9.63968 1829.88 6.21C1829.88 2.78031 1832.66 0 1836.09 0C1839.52 0 1842.3 2.78031 1842.3 6.21ZM1982.02 6.21C1982.02 9.63968 1979.24 12.42 1975.81 12.42C1972.38 12.42 1969.6 9.63968 1969.6 6.21C1969.6 2.78031 1972.38 0 1975.81 0C1979.24 0 1982.02 2.78031 1982.02 6.21ZM1982.02 145.935C1982.02 149.365 1979.24 152.145 1975.81 152.145C1972.38 152.145 1969.6 149.365 1969.6 145.935C1969.6 142.505 1972.38 139.725 1975.81 139.725C1979.24 139.725 1982.02 142.505 1982.02 145.935ZM1842.3 145.935C1842.3 149.365 1839.52 152.145 1836.09 152.145C1832.66 152.145 1829.88 149.365 1829.88 145.935C1829.88 142.505 1832.66 139.725 1836.09 139.725C1839.52 139.725 1842.3 142.505 1842.3 145.935Z" stroke="white" stroke-width="3"/>
<path d="M1835.57 288.765L1835.57 426.419M1837.12 427.972H1974.78M1976.33 426.419L1976.33 288.765M1837.12 287.212H1974.78M1842.3 287.73C1842.3 291.159 1839.52 293.94 1836.09 293.94C1832.66 293.94 1829.88 291.159 1829.88 287.73C1829.88 284.3 1832.66 281.52 1836.09 281.52C1839.52 281.52 1842.3 284.3 1842.3 287.73ZM1982.02 287.73C1982.02 291.159 1979.24 293.94 1975.81 293.94C1972.38 293.94 1969.6 291.159 1969.6 287.73C1969.6 284.3 1972.38 281.52 1975.81 281.52C1979.24 281.52 1982.02 284.3 1982.02 287.73ZM1982.02 427.454C1982.02 430.884 1979.24 433.664 1975.81 433.664C1972.38 433.664 1969.6 430.884 1969.6 427.454C1969.6 424.025 1972.38 421.244 1975.81 421.244C1979.24 421.244 1982.02 424.025 1982.02 427.454ZM1842.3 427.454C1842.3 430.884 1839.52 433.664 1836.09 433.664C1832.66 433.664 1829.88 430.884 1829.88 427.454C1829.88 424.025 1832.66 421.244 1836.09 421.244C1839.52 421.244 1842.3 424.025 1842.3 427.454Z" stroke="white" stroke-width="3"/>
<path d="M1835.57 148.005L1835.57 285.66M1837.12 287.212H1974.78M1976.33 285.66L1976.33 148.005M1837.12 146.452H1974.78M1842.3 146.97C1842.3 150.399 1839.52 153.18 1836.09 153.18C1832.66 153.18 1829.88 150.399 1829.88 146.97C1829.88 143.54 1832.66 140.76 1836.09 140.76C1839.52 140.76 1842.3 143.54 1842.3 146.97ZM1982.02 146.97C1982.02 150.399 1979.24 153.18 1975.81 153.18C1972.38 153.18 1969.6 150.399 1969.6 146.97C1969.6 143.54 1972.38 140.76 1975.81 140.76C1979.24 140.76 1982.02 143.54 1982.02 146.97ZM1982.02 286.695C1982.02 290.124 1979.24 292.905 1975.81 292.905C1972.38 292.905 1969.6 290.124 1969.6 286.695C1969.6 283.265 1972.38 280.485 1975.81 280.485C1979.24 280.485 1982.02 283.265 1982.02 286.695ZM1842.3 286.695C1842.3 290.124 1839.52 292.905 1836.09 292.905C1832.66 292.905 1829.88 290.124 1829.88 286.695C1829.88 283.265 1832.66 280.485 1836.09 280.485C1839.52 280.485 1842.3 283.265 1842.3 286.695Z" stroke="white" stroke-width="3"/>
</g>
<defs>
<linearGradient id="paint0_linear_361_3540" x1="991" y1="0" x2="991" y2="856" gradientUnits="userSpaceOnUse">
<stop stop-color="white" stop-opacity="0"/>
<stop offset="0.64" stop-color="white" stop-opacity="0.53"/>
<stop offset="1" stop-color="white"/>
</linearGradient>
</defs>
</svg>
