<svg width="256" height="256" viewBox="0 0 256 256" fill="none" xmlns="http://www.w3.org/2000/svg">
<path d="M243.636 128C250.465 128 256.062 122.452 255.403 115.655C254.185 103.08 251.109 90.731 246.257 79.0165C239.824 63.4868 230.396 49.3762 218.51 37.4903C206.624 25.6044 192.513 16.176 176.983 9.74342C165.269 4.89111 152.92 1.81514 140.345 0.596655C133.548 -0.0618856 128 5.53544 128 12.3637V12.3637C128 19.1921 133.555 24.6512 140.334 25.4667C149.66 26.5885 158.808 28.9796 167.521 32.5886C180.05 37.7786 191.435 45.3856 201.025 54.9753C210.614 64.565 218.221 75.9497 223.411 88.4793C227.02 97.1924 229.411 106.34 230.533 115.666C231.349 122.445 236.808 128 243.636 128V128Z" fill="white"/>
</svg>
