<svg width="800" height="800" viewBox="0 0 800 800" fill="none" xmlns="http://www.w3.org/2000/svg">
<g clip-path="url(#clip0_251_2417)">
<path d="M515.501 54.6552C480.434 46.5663 442.923 49.2552 405.59 64.833C370.617 79.5202 341.243 104.985 321.745 137.522C295.256 130.455 266.745 132.322 238.412 144.722C195.745 163.411 167.278 203.833 159.256 249.433C146.545 243.9 130.612 242.122 111.101 248.633C44.4339 270.855 88.8784 359.744 0.0117187 426.411C32.5451 480.633 80.9006 492.411 121.945 490.366C131.101 544.166 142.745 574.811 142.745 574.811H142.789C148.948 590.053 159.519 603.108 173.147 612.301C186.775 621.495 202.839 626.408 219.278 626.411C238.812 626.411 256.523 619.344 270.656 608.011L276.389 623.389L276.456 623.366C295.812 675.144 342.589 711.7 397.323 711.7C420.589 711.7 442.367 705.033 461.278 693.477C489.478 756.211 550.678 800.011 622.212 800.011C720.389 800.011 799.99 717.989 799.99 616.811C799.99 544.166 784.367 471.055 762.989 405.011C786.101 355.166 799.99 278.455 799.99 162.966C799.99 141.567 795.774 120.377 787.585 100.606C779.396 80.8353 767.393 62.8712 752.261 47.7393C737.129 32.6075 719.165 20.6044 699.394 12.415C679.624 4.22577 658.434 0.0107422 637.034 0.0107422C614.064 0.0090332 591.356 4.87848 570.406 14.2979C549.457 23.7172 530.743 37.4722 515.501 54.6552Z" fill="#BF6952"/>
<path d="M427.844 488.785C427.844 445.829 383.072 411.007 327.844 411.007C272.615 411.007 227.844 445.829 227.844 488.785C227.844 531.74 272.615 566.562 327.844 566.562C383.072 566.562 427.844 531.74 427.844 488.785Z" fill="#F5F8FA"/>
<path d="M466.605 269.969C466.605 227.014 421.834 192.192 366.605 192.192C311.377 192.192 266.605 227.014 266.605 269.969C266.605 312.925 311.377 347.747 366.605 347.747C421.834 347.747 466.605 312.925 466.605 269.969Z" fill="#F5F8FA"/>
<path d="M385.338 477.843C385.338 453.297 360.465 433.398 329.782 433.398C299.1 433.398 274.227 453.297 274.227 477.843C274.227 502.389 299.1 522.287 329.782 522.287C360.465 522.287 385.338 502.389 385.338 477.843Z" fill="#292F33"/>
<path d="M420.224 280.909C420.224 256.363 395.351 236.465 364.669 236.465C333.986 236.465 309.113 256.363 309.113 280.909C309.113 305.455 333.986 325.354 364.669 325.354C395.351 325.354 420.224 305.455 420.224 280.909Z" fill="#292F33"/>
<path d="M554.022 625.301C543.066 630.768 534.133 625.234 534.133 613.012V213.012C534.133 200.79 543.066 195.257 554.022 200.723C554.022 200.723 667.466 257.457 667.466 413.012C667.466 568.568 554.022 625.301 554.022 625.301Z" fill="#292F33"/>
<path d="M578.234 416.89C578.234 478.467 598.723 531.49 628.368 556.712C649.59 523.556 667.123 477.934 667.123 416.89C667.123 355.845 649.59 310.201 628.368 277.067C598.723 302.29 578.234 355.312 578.234 416.89Z" fill="#F2ABBA"/>
</g>
<defs>
<clipPath id="clip0_251_2417">
<rect width="800" height="800" fill="white"/>
</clipPath>
</defs>
</svg>
