<svg width="37" height="37" viewBox="0 0 37 37" fill="none" xmlns="http://www.w3.org/2000/svg">
<path d="M36.1545 32.0608L27.5043 23.4115C29.4714 20.4916 30.4419 16.8433 29.9223 12.9558C29.0364 6.3435 23.6164 0.962451 16.9969 0.124476C7.15496 -1.12075 -1.12093 7.15423 0.124503 16.995C0.962787 23.6168 6.34515 29.0404 12.9589 29.922C16.8468 30.4414 20.4963 29.4714 23.4158 27.5042L32.066 36.1535C33.1948 37.2822 35.0253 37.2822 36.1541 36.1535C37.2819 35.0234 37.2819 33.188 36.1545 32.0608ZM5.71615 15.0296C5.71615 9.92966 9.86566 5.78061 14.9662 5.78061C20.0667 5.78061 24.2162 9.92966 24.2162 15.0296C24.2162 20.1296 20.0667 24.2786 14.9662 24.2786C9.86566 24.2786 5.71615 20.131 5.71615 15.0296Z" fill="white"/>
</svg>
