<svg width="96" height="96" viewBox="0 0 96 96" fill="none" xmlns="http://www.w3.org/2000/svg">
<g clip-path="url(#clip0_3_43)">
<path d="M24.16 27.2C24.16 25.521 25.521 24.16 27.2 24.16H43.64C45.3189 24.16 46.68 25.521 46.68 27.2V43.64C46.68 45.3189 45.3189 46.68 43.64 46.68H27.2C25.521 46.68 24.16 45.3189 24.16 43.64V27.2ZM49.32 27.2C49.32 25.521 50.6811 24.16 52.36 24.16H68.8C70.4789 24.16 71.84 25.521 71.84 27.2V43.64C71.84 45.3189 70.4789 46.68 68.8 46.68H52.36C50.6811 46.68 49.32 45.3189 49.32 43.64V27.2ZM24.16 52.36C24.16 50.6811 25.521 49.32 27.2 49.32H43.64C45.3189 49.32 46.68 50.6811 46.68 52.36V68.8C46.68 70.4789 45.3189 71.84 43.64 71.84H27.2C25.521 71.84 24.16 70.4789 24.16 68.8V52.36ZM49.32 52.36C49.32 50.6811 50.6811 49.32 52.36 49.32H68.8C70.4789 49.32 71.84 50.6811 71.84 52.36V68.8C71.84 70.4789 70.4789 71.84 68.8 71.84H52.36C50.6811 71.84 49.32 70.4789 49.32 68.8V52.36Z" fill="white" stroke="#201949" stroke-width="0.2"/>
</g>
<defs>
<clipPath id="clip0_3_43">
<rect width="48" height="48" fill="white" transform="translate(24 24)"/>
</clipPath>
</defs>
</svg>
